<svg xmlns="http://www.w3.org/2000/svg" style="transform: matrix(1.3, 0, 0, 1.3, 0, 0); transform-origin: 50% 50%; cursor: move; max-height: 290.02px; transition: transform 200ms ease-in-out 0s;" width="518" height="482" viewBox="0 0 5180 4820">
    <g id="l6MTZBDmyJo9DlrXvyyb3S" fill="rgb(44,36,30)" style="transform: none;">
        <g>
            <path id="phRJLkUX9" d="M1613 3941 c-55 -19 -68 -27 -122 -75 -44 -41 -77 -94 -109 -175 -23 -59 -26 -80 -27 -203 l-1 -137 -75 -78 c-110 -114 -163 -199 -222 -358 -73 -197 -92 -347 -84 -684 15 -673 94 -950 322 -1134 151 -121 400 -187 895 -237 945 -94 1274 -39 1576 264 194 195 287 428 315 795 13 166 -2 572 -27 754 -34 245 -116 433 -238 546 -32 30 -32 39 0 82 70 94 105 203 90 283 -15 81 -110 143 -236 153 -158 13 -346 -57 -540 -201 -41 -31 -81 -56 -89 -56 -8 0 -107 11 -220 25 -188 22 -524 52 -661 58 l-55 2 -7 63 c-14 128 -93 249 -196 299 -74 36 -209 43 -289 14z"></path>
        </g>
    </g>
    <g id="l3AT8Ilg1toMnxmuxUtQG4D" fill="rgb(67,53,43)" style="transform: none;">
        <g>
            <path id="p14KQvp1oU" d="M1613 3941 c-55 -19 -68 -27 -122 -75 -44 -41 -77 -94 -109 -175 -23 -59 -26 -80 -27 -203 l-1 -137 -75 -78 c-110 -114 -163 -199 -222 -358 -73 -197 -92 -347 -84 -684 15 -673 94 -950 322 -1134 151 -121 400 -187 895 -237 945 -94 1274 -39 1576 264 194 195 287 428 315 795 13 166 -2 572 -27 754 -34 245 -116 433 -238 546 -32 30 -32 39 0 82 70 94 105 203 90 283 -15 81 -110 143 -236 153 -158 13 -346 -57 -540 -201 -41 -31 -81 -56 -89 -56 -8 0 -107 11 -220 25 -188 22 -524 52 -661 58 l-55 2 -7 63 c-14 128 -93 249 -196 299 -74 36 -209 43 -289 14z m178 -1039 c110 -73 132 -99 109 -127 -7 -8 -9 -15 -4 -15 5 0 1 -5 -8 -11 -51 -29 -162 90 -143 152 8 23 13 23 46 1z"></path>
        </g>
    </g>
    <g id="l2AiPB8dx8VfrSwNr1DbDeF" fill="rgb(79,65,55)" style="transform: none;">
        <g>
            <path id="p8ZKrhvc9" d="M1613 3941 c-55 -19 -68 -27 -122 -75 -44 -41 -77 -94 -109 -175 -23 -59 -26 -80 -27 -203 l-1 -137 -75 -78 c-110 -114 -163 -199 -222 -358 -73 -197 -92 -347 -84 -684 15 -673 94 -950 322 -1134 151 -121 400 -187 895 -237 945 -94 1274 -39 1576 264 194 195 287 428 315 795 13 166 -2 572 -27 754 -34 245 -116 433 -238 546 -32 30 -32 39 0 82 70 94 105 203 90 283 -15 81 -110 143 -236 153 -158 13 -346 -57 -540 -201 -41 -31 -81 -56 -89 -56 -8 0 -107 11 -220 25 -188 22 -524 52 -661 58 l-55 2 -7 63 c-14 128 -93 249 -196 299 -74 36 -209 43 -289 14z m485 -742 c28 -10 58 -42 73 -79 7 -16 -22 -78 -68 -146 -15 -23 -57 -85 -92 -138 -55 -82 -69 -97 -98 -102 -97 -18 -199 108 -196 243 3 102 55 179 145 215 50 20 188 24 236 7z m1488 -231 c-2 -7 -10 -48 -17 -91 -15 -95 -33 -89 -27 8 3 51 9 71 23 81 23 17 25 17 21 2z"></path>
        </g>
    </g>
    <g id="l1tCp9OKGltjczFKG2xuhWo" fill="rgb(83,71,64)" style="transform: none;">
        <g>
            <path id="py1MpddUf" d="M1613 3941 c-55 -19 -68 -27 -122 -75 -44 -41 -77 -94 -109 -175 -23 -59 -26 -80 -27 -203 l-1 -137 -75 -78 c-110 -114 -163 -199 -222 -358 -73 -197 -92 -347 -84 -684 15 -673 94 -950 322 -1134 151 -121 400 -187 895 -237 945 -94 1274 -39 1576 264 194 195 287 428 315 795 13 166 -2 572 -27 754 -34 245 -116 433 -238 546 -32 30 -32 39 0 82 70 94 105 203 90 283 -15 81 -110 143 -236 153 -158 13 -346 -57 -540 -201 -41 -31 -81 -56 -89 -56 -8 0 -107 11 -220 25 -188 22 -524 52 -661 58 l-55 2 -7 63 c-14 128 -93 249 -196 299 -74 36 -209 43 -289 14z m489 -743 c77 -27 132 -79 153 -145 5 -18 2 -23 -12 -23 -11 0 -41 -25 -67 -55 -26 -30 -52 -53 -57 -49 -5 3 -8 0 -7 -7 2 -7 -2 -13 -8 -14 -17 0 -99 -77 -128 -120 -33 -48 -43 -55 -79 -55 -100 0 -199 148 -182 274 14 109 78 177 192 206 44 11 146 5 195 -12z m1676 -195 c59 -24 118 -70 142 -108 12 -20 20 -38 18 -40 -2 -3 -21 7 -42 21 -36 24 -45 26 -125 22 -62 -3 -98 -10 -128 -26 -47 -25 -58 -40 -69 -97 l-7 -40 -14 40 c-21 57 -13 166 13 202 39 53 124 63 212 26z"></path>
        </g>
    </g>
    <g id="l1D7q54wR2ovfp3Ld2D7mhL" fill="rgb(87,80,75)" style="transform: none;">
        <g>
            <path id="p1BvUw23GE" d="M1613 3941 c-55 -19 -68 -27 -122 -75 -44 -41 -77 -94 -109 -175 -23 -59 -26 -80 -27 -203 l-1 -137 -75 -78 c-110 -114 -163 -199 -222 -358 -73 -197 -92 -347 -84 -684 15 -673 94 -950 322 -1134 151 -121 400 -187 895 -237 945 -94 1274 -39 1576 264 194 195 287 428 315 795 13 166 -2 572 -27 754 -34 245 -116 433 -238 546 -32 30 -32 39 0 82 70 94 105 203 90 283 -15 81 -110 143 -236 153 -158 13 -346 -57 -540 -201 -41 -31 -81 -56 -89 -56 -8 0 -107 11 -220 25 -188 22 -524 52 -661 58 l-55 2 -7 63 c-14 128 -93 249 -196 299 -74 36 -209 43 -289 14z m502 -745 c98 -41 155 -123 155 -225 0 -49 -1 -53 -14 -36 -13 18 -16 17 -61 -23 -26 -23 -55 -42 -65 -42 -9 0 -25 -9 -35 -20 -11 -12 -35 -28 -54 -37 -20 -10 -39 -28 -45 -45 -6 -15 -15 -28 -21 -29 -5 0 -1 -4 10 -9 14 -6 5 -9 -35 -9 -106 -1 -193 67 -225 175 -54 186 74 332 281 320 38 -2 88 -11 109 -20z m1677 -194 c94 -41 164 -129 188 -238 12 -55 2 -74 -25 -44 -13 14 -31 20 -63 20 -25 0 -42 3 -38 7 8 9 -119 42 -162 43 -55 0 -101 -35 -102 -80 -1 -22 -3 -21 -22 15 -16 29 -23 63 -26 125 -3 77 -2 88 20 120 13 19 35 41 48 48 33 17 122 9 182 -16z"></path>
        </g>
    </g>
    <g id="l7moXJbY0cFpiEccVvWobvY" fill="rgb(180,47,72)" style="transform: none;">
        <g>
            <path id="pUqFcGG8i" d="M1613 3941 c-55 -19 -68 -27 -122 -75 -44 -41 -77 -94 -109 -175 -23 -59 -26 -80 -27 -203 l-1 -137 -75 -78 c-110 -114 -163 -199 -222 -358 -73 -197 -92 -347 -84 -684 15 -673 94 -950 322 -1134 151 -121 400 -187 895 -237 945 -94 1274 -39 1576 264 194 195 287 428 315 795 13 166 -2 572 -27 754 -34 245 -116 433 -238 546 -32 30 -32 39 0 82 70 94 105 203 90 283 -15 81 -110 143 -236 153 -158 13 -346 -57 -540 -201 -41 -31 -81 -56 -89 -56 -8 0 -107 11 -220 25 -188 22 -524 52 -661 58 l-55 2 -7 63 c-14 128 -93 249 -196 299 -74 36 -209 43 -289 14z m502 -745 c125 -53 183 -176 143 -308 -34 -114 -262 -204 -392 -154 -152 58 -203 283 -92 404 67 75 234 102 341 58z m1677 -195 c115 -49 192 -168 192 -296 1 -92 -24 -141 -84 -172 -28 -15 -52 -20 -69 -16 -77 18 -200 105 -242 171 -38 60 -49 101 -49 183 0 73 23 122 70 147 33 17 122 9 182 -17z"></path>
        </g>
    </g>
    <g id="l3hgYztwePj6MsXbmdIAIQO" fill="rgb(160,79,87)" style="transform: none;">
        <g>
            <path id="pQn05oGUr" d="M1626 3919 c-45 -53 -114 -175 -122 -218 -5 -24 -3 -32 12 -38 11 -5 19 -18 19 -32 0 -32 54 -48 192 -57 112 -7 138 -18 70 -28 -113 -17 -283 -82 -379 -144 -50 -32 -200 -187 -245 -252 -95 -140 -167 -350 -194 -564 -15 -125 -6 -552 16 -761 42 -396 118 -581 300 -728 151 -121 400 -187 895 -237 945 -94 1274 -39 1576 264 194 195 287 428 315 795 13 166 -2 572 -27 754 -34 245 -116 433 -238 546 -32 30 -32 39 0 82 100 133 121 276 54 353 -49 55 -119 80 -230 80 l-95 1 -78 -81 c-108 -113 -140 -159 -134 -190 4 -24 2 -26 -22 -21 -171 34 -892 109 -1146 119 l-60 3 -7 63 c-8 77 -52 174 -103 230 -58 65 -131 95 -240 100 l-92 4 -37 -43z m489 -723 c125 -53 183 -176 143 -308 -34 -114 -262 -204 -392 -154 -152 58 -203 283 -92 404 67 75 234 102 341 58z m1677 -195 c115 -49 192 -168 192 -296 1 -92 -24 -141 -84 -172 -28 -15 -52 -20 -69 -16 -77 18 -200 105 -242 171 -38 60 -49 101 -49 183 0 73 23 122 70 147 33 17 122 9 182 -17z"></path>
        </g>
    </g>
    <g id="lfyuZYam87slMyHqhXsx55" fill="rgb(203,43,98)" style="transform: none;">
        <g>
            <path id="pzviZXfDT" d="M1626 3919 c-45 -53 -114 -175 -122 -218 -5 -24 -3 -32 12 -38 11 -5 19 -18 19 -32 0 -32 54 -48 192 -57 57 -4 106 -10 108 -14 3 -4 -15 -11 -40 -14 -45 -7 -195 -53 -250 -77 -120 -52 -273 -182 -363 -307 -99 -138 -176 -356 -203 -576 -15 -125 -6 -552 16 -761 42 -396 118 -581 300 -728 151 -121 400 -187 895 -237 945 -94 1274 -39 1576 264 194 195 287 428 315 795 13 166 -2 572 -27 754 -34 245 -116 433 -238 546 -32 30 -32 39 0 82 100 133 121 276 54 353 -49 55 -119 80 -230 80 l-95 1 -78 -81 c-108 -113 -140 -159 -134 -190 4 -24 2 -26 -22 -21 -171 34 -892 109 -1146 119 l-60 3 -7 63 c-8 77 -52 174 -103 230 -58 65 -131 95 -240 100 l-92 4 -37 -43z m504 -726 c115 -52 167 -175 128 -305 -25 -86 -150 -157 -289 -166 -67 -4 -84 -1 -130 20 -70 32 -113 69 -145 124 -23 39 -26 53 -22 113 6 109 64 178 191 223 70 25 203 20 267 -9z m1666 -192 c123 -58 188 -159 189 -291 0 -97 -23 -146 -85 -177 -28 -15 -52 -20 -69 -16 -66 15 -193 99 -230 152 -86 120 -86 300 -2 346 45 25 128 19 197 -14z"></path>
        </g>
    </g>
    <g id="l39bvqbtO0eiFzdcbV9U1U2" fill="rgb(169,91,110)" style="transform: none;">
        <g>
            <path id="p7L1nPaqk" d="M1724 3908 c-99 -104 -106 -156 -33 -236 63 -69 70 -71 201 -72 64 0 123 -3 132 -6 32 -12 14 -22 -56 -28 -143 -14 -313 -53 -413 -94 -124 -51 -279 -180 -373 -310 -99 -138 -176 -356 -203 -576 -15 -125 -6 -552 16 -761 42 -396 118 -581 300 -728 151 -121 400 -187 895 -237 945 -94 1274 -39 1576 264 194 195 287 428 315 795 13 166 -2 572 -27 754 -34 245 -116 433 -238 546 -32 30 -32 39 0 82 14 19 40 61 57 94 27 52 31 71 32 137 0 62 -4 82 -21 105 -27 36 -77 70 -127 85 -35 11 -44 9 -86 -12 -93 -49 -211 -208 -197 -266 3 -12 2 -25 -3 -29 -6 -3 -78 8 -160 25 -83 16 -202 34 -263 40 -62 6 -185 19 -273 30 -149 18 -488 47 -615 53 l-55 2 -7 63 c-8 77 -52 174 -103 230 -41 46 -119 88 -180 98 -39 6 -42 4 -91 -48z m406 -715 c115 -52 167 -175 128 -305 -25 -86 -150 -157 -289 -166 -67 -4 -84 -1 -130 20 -70 32 -113 69 -145 124 -23 39 -26 53 -22 113 6 109 64 178 191 223 70 25 203 20 267 -9z m1666 -192 c123 -58 188 -159 189 -291 0 -97 -23 -146 -85 -177 -28 -15 -52 -20 -69 -16 -66 15 -193 99 -230 152 -86 120 -86 300 -2 346 45 25 128 19 197 -14z"></path>
        </g>
    </g>
    <g id="l2vD7bS4lQU0wZq8PgkaK65" fill="rgb(209,50,119)" style="transform: none;">
        <g>
            <path id="pqD3e4MQl" d="M1724 3908 c-99 -104 -106 -156 -33 -236 63 -69 70 -71 204 -72 104 0 161 -9 145 -23 -3 -2 -45 -9 -95 -15 -146 -18 -195 -32 -289 -81 -60 -31 -75 -44 -98 -86 -15 -28 -36 -86 -47 -130 -11 -44 -38 -131 -60 -194 -30 -84 -43 -142 -51 -220 -16 -152 -28 -180 -92 -214 -31 -17 -60 -26 -70 -22 -24 10 -45 60 -57 143 -6 41 -18 90 -27 110 -10 26 -14 61 -12 116 4 98 -10 107 -45 29 -107 -239 -133 -403 -124 -782 15 -673 94 -950 322 -1134 151 -121 400 -187 895 -237 945 -94 1274 -39 1576 264 194 195 287 428 315 795 13 166 -2 572 -27 754 -34 245 -116 433 -238 546 -32 30 -32 39 0 82 14 19 40 61 57 94 27 52 31 71 32 137 0 62 -4 82 -21 105 -27 36 -77 70 -127 85 -35 11 -44 9 -86 -12 -93 -49 -211 -208 -197 -266 3 -12 2 -26 -4 -29 -5 -3 -54 3 -107 14 -236 48 -881 120 -1198 133 l-60 3 -7 63 c-8 77 -52 174 -103 230 -41 46 -119 88 -180 98 -39 6 -42 4 -91 -48z m366 -699 c105 -26 182 -121 183 -227 0 -82 -17 -125 -70 -171 -61 -54 -139 -83 -236 -89 -91 -5 -136 9 -227 69 -123 83 -143 211 -49 313 43 48 152 103 227 116 49 8 112 4 172 -11z m1709 -207 c69 -32 126 -89 160 -161 21 -46 26 -70 26 -136 0 -99 -20 -139 -86 -174 -46 -25 -47 -25 -92 -7 -63 24 -162 92 -203 139 -76 89 -95 255 -36 326 24 30 89 51 137 44 22 -3 64 -17 94 -31z"></path>
        </g>
    </g>
    <g id="l5zC1i8DdibmVflOuBZQjvg" fill="rgb(173,99,123)" style="transform: none;">
        <g>
            <path id="pYOWHHU4V" d="M3760 3712 c0 -5 -18 -17 -41 -27 -60 -28 -79 -57 -74 -116 2 -27 7 -54 12 -61 27 -44 47 -178 25 -178 -5 0 -37 11 -73 25 -156 62 -380 105 -779 150 -731 82 -981 77 -1170 -22 -64 -33 -79 -46 -102 -88 -15 -28 -36 -86 -47 -130 -11 -44 -38 -131 -60 -194 -30 -84 -43 -142 -51 -220 -16 -152 -28 -180 -92 -214 -31 -17 -60 -26 -70 -22 -24 10 -45 60 -57 143 -6 41 -18 90 -27 110 -10 26 -14 61 -12 116 4 98 -10 107 -45 29 -107 -239 -133 -403 -124 -782 15 -673 94 -950 322 -1134 151 -121 400 -187 895 -237 945 -94 1274 -39 1576 264 194 195 287 428 315 795 13 166 -2 572 -27 754 -34 245 -116 433 -238 546 -32 30 -32 39 0 82 44 58 85 148 91 199 11 97 -20 161 -98 200 -43 22 -49 24 -49 12z m-1670 -503 c105 -26 182 -121 183 -227 0 -82 -17 -125 -70 -171 -61 -54 -139 -83 -236 -89 -91 -5 -136 9 -227 69 -123 83 -143 211 -49 313 43 48 152 103 227 116 49 8 112 4 172 -11z m1709 -207 c69 -32 126 -89 160 -161 21 -46 26 -70 26 -136 0 -99 -20 -139 -86 -174 -46 -25 -47 -25 -92 -7 -63 24 -162 92 -203 139 -76 89 -95 255 -36 326 24 30 89 51 137 44 22 -3 64 -17 94 -31z"></path>
        </g>
    </g>
    <g id="l7HVTZYgTK8RWsu8xgchMXP" fill="rgb(178,106,133)" style="transform: none;">
        <g>
            <path id="p1H6pGYeGL" d="M3760 3712 c0 -5 -18 -17 -41 -27 -60 -28 -79 -57 -74 -116 2 -27 7 -54 12 -61 27 -44 47 -178 25 -178 -5 0 -37 11 -71 25 -129 50 -376 104 -571 125 -58 6 -157 17 -220 25 -332 42 -751 69 -857 55 -103 -14 -130 -24 -200 -69 -79 -51 -116 -109 -132 -203 -21 -121 -6 -158 53 -130 11 6 66 23 121 38 276 78 470 -15 469 -226 -1 -115 -53 -179 -189 -229 -85 -31 -151 -35 -226 -11 -59 18 -199 98 -236 136 -39 39 -68 1 -82 -108 -7 -48 -18 -106 -26 -128 -26 -73 -38 -209 -32 -358 4 -105 2 -155 -8 -190 -7 -26 -17 -67 -20 -92 -4 -25 -14 -60 -23 -79 -20 -40 -84 -88 -129 -97 -28 -5 -37 -2 -60 24 -42 44 -159 287 -179 369 -9 40 -27 83 -40 98 -29 34 -38 76 -39 177 0 45 -4 73 -9 68 -13 -13 0 -555 19 -725 42 -397 119 -581 300 -728 151 -121 400 -187 895 -237 945 -94 1274 -39 1576 264 194 195 287 428 315 795 13 166 -2 572 -27 754 -34 245 -116 433 -238 546 -32 30 -32 39 0 82 44 58 85 148 91 199 11 97 -20 161 -98 200 -43 22 -49 24 -49 12z m35 -706 c71 -32 117 -75 155 -147 73 -138 42 -304 -65 -339 -27 -9 -44 -9 -72 1 -51 16 -166 94 -205 138 -107 122 -99 336 15 370 44 13 112 4 172 -23z"></path>
            <path id="p1DKSYDvdW" d="M1052 2905 c-20 -60 -61 -219 -58 -222 10 -10 78 211 74 239 -2 19 -5 16 -16 -17z"></path>
        </g>
    </g>
    <g id="l1DmwnUp1AmjAdqGukDetka" fill="rgb(216,68,139)" style="transform: none;">
        <g>
            <path id="pfMS1Twfq" d="M1832 3932 c-11 -9 -34 -25 -51 -34 -38 -21 -72 -75 -69 -107 2 -18 14 -28 53 -42 28 -10 61 -29 75 -42 67 -62 171 -99 235 -83 24 6 26 10 20 39 -10 45 -51 135 -81 174 -31 40 -79 78 -126 97 -33 14 -38 14 -56 -2z"></path>
            <path id="pu0HWUJcL" d="M3760 3712 c0 -5 -18 -17 -41 -27 -60 -28 -79 -57 -74 -116 2 -27 7 -54 12 -61 27 -44 47 -178 25 -178 -5 0 -37 11 -73 25 -55 22 -146 49 -199 60 -8 2 -49 10 -90 18 -245 50 -773 109 -1133 126 -140 7 -173 6 -185 -5 -7 -8 -21 -14 -30 -14 -28 0 -156 -92 -201 -144 -44 -51 -54 -69 -66 -124 -6 -30 -4 -33 29 -47 31 -13 52 -14 145 -4 225 25 357 -42 392 -197 15 -69 -1 -150 -39 -195 -37 -45 -168 -106 -245 -114 -76 -8 -126 3 -228 52 -42 20 -84 33 -92 30 -17 -6 -37 -65 -37 -108 0 -15 -11 -51 -24 -81 -23 -51 -24 -64 -24 -253 0 -187 -1 -205 -25 -275 -13 -41 -28 -99 -32 -128 -10 -78 -39 -166 -72 -219 -31 -50 -73 -160 -73 -191 0 -39 -35 -114 -60 -127 -51 -26 -85 5 -106 97 -8 34 -21 69 -28 78 -8 8 -23 56 -35 106 -29 127 -45 168 -98 252 -25 41 -54 95 -64 121 l-18 46 5 -55 c2 -30 11 -129 19 -219 38 -403 115 -594 300 -744 151 -121 400 -187 895 -237 945 -94 1274 -39 1576 264 194 195 287 428 315 795 13 166 -2 572 -27 754 -34 245 -116 433 -238 546 -32 30 -32 39 0 82 44 58 85 148 91 199 11 97 -20 161 -98 200 -43 22 -49 24 -49 12z m47 -712 c68 -34 119 -86 155 -159 18 -37 23 -63 23 -137 0 -84 -2 -93 -28 -128 -38 -48 -84 -71 -130 -62 -42 8 -168 89 -214 137 -45 48 -75 122 -80 199 -4 54 0 73 19 110 45 87 131 101 255 40z"></path>
        </g>
    </g>
    <g id="lSHSHvfRcWfbRwaBy5BDOY" fill="rgb(188,116,148)" style="transform: none;">
        <g>
            <path id="pZObd6Q37" d="M3830 3671 c0 -4 -21 -11 -46 -14 -28 -3 -54 -13 -67 -26 -20 -20 -20 -21 -2 -41 11 -12 41 -35 67 -53 54 -34 64 -56 54 -123 -6 -49 -40 -122 -59 -130 -7 -2 -56 16 -109 41 -168 80 -378 125 -803 175 -512 59 -799 74 -882 45 -61 -21 -164 -94 -213 -149 -43 -51 -53 -69 -65 -124 -6 -30 -4 -33 29 -47 31 -13 52 -14 145 -4 225 25 357 -42 392 -197 15 -69 -1 -150 -39 -195 -37 -45 -168 -106 -245 -114 -76 -8 -126 3 -228 52 -42 20 -84 33 -92 30 -17 -6 -37 -65 -37 -108 0 -15 -11 -51 -24 -81 -23 -51 -24 -64 -24 -253 0 -187 -1 -205 -25 -275 -13 -41 -28 -99 -32 -128 -10 -78 -39 -166 -72 -219 -31 -50 -73 -160 -73 -191 0 -39 -35 -114 -60 -127 -51 -26 -85 5 -106 97 -8 34 -21 69 -28 78 -8 8 -23 56 -35 106 -29 127 -45 168 -98 252 -25 41 -54 95 -64 121 l-18 46 5 -55 c2 -30 11 -129 19 -219 38 -403 115 -594 300 -744 151 -121 400 -187 895 -237 945 -94 1274 -39 1576 264 194 195 287 428 315 795 13 166 -2 572 -27 754 -34 245 -116 433 -238 546 -32 30 -32 39 0 82 97 130 121 273 58 349 -25 29 -44 39 -44 21z m-23 -671 c68 -34 119 -86 155 -159 18 -37 23 -63 23 -137 0 -84 -2 -93 -28 -128 -38 -48 -84 -71 -130 -62 -42 8 -168 89 -214 137 -45 48 -75 122 -80 199 -4 54 0 73 19 110 45 87 131 101 255 40z"></path>
        </g>
    </g>
    <g id="l4l1hta7zwG2HnpkwYKmg5y" fill="rgb(223,85,152)" style="transform: none;">
        <g>
            <path id="p2uIc2Csx" d="M1805 3860 c-32 -35 -14 -62 65 -94 53 -21 78 -27 105 -22 42 8 43 19 10 68 -44 65 -141 91 -180 48z"></path>
            <path id="pas6ZWfLE" d="M2010 3824 c0 -8 40 -74 46 -74 2 0 -1 12 -6 26 -10 25 -40 62 -40 48z"></path>
            <path id="p1Bw8UmtVI" d="M3830 3671 c0 -4 -21 -11 -46 -14 -28 -3 -54 -13 -67 -26 -20 -20 -20 -21 -2 -41 11 -12 41 -35 67 -53 54 -34 64 -56 54 -123 -6 -46 -38 -118 -57 -130 -6 -3 -51 13 -99 36 -49 23 -97 43 -107 45 -10 2 -19 4 -20 5 -2 2 -7 4 -13 5 -5 1 -11 3 -12 5 -2 1 -10 3 -18 5 -8 1 -51 12 -95 23 -118 30 -234 49 -380 62 -71 6 -168 15 -215 20 -121 14 -414 33 -485 30 -98 -3 -213 -48 -296 -116 -72 -59 -90 -86 -93 -139 -1 -30 -1 -30 65 -36 155 -16 252 -101 266 -233 12 -113 -38 -191 -158 -246 -60 -28 -87 -34 -165 -38 l-94 -5 -20 -42 c-11 -23 -20 -55 -20 -71 0 -16 -6 -56 -14 -89 -8 -33 -17 -91 -21 -130 -13 -138 -36 -248 -64 -304 -16 -31 -36 -91 -45 -134 -18 -89 -59 -214 -86 -261 -40 -71 -50 -204 -21 -300 5 -17 21 -71 36 -121 37 -123 84 -222 122 -256 18 -16 33 -33 33 -39 0 -42 89 -66 326 -89 56 -6 125 -13 155 -16 892 -88 1228 -29 1525 269 194 195 287 428 315 795 13 166 -2 572 -27 754 -34 245 -116 433 -238 546 -32 30 -32 39 0 82 97 130 121 273 58 349 -25 29 -44 39 -44 21z m-23 -669 c74 -38 135 -105 164 -181 28 -75 24 -195 -7 -238 -29 -39 -82 -73 -113 -73 -37 0 -116 40 -188 94 -82 62 -124 142 -130 249 -5 85 12 128 67 165 47 32 122 26 207 -16z"></path>
        </g>
    </g>
    <g id="l6w6w5CP9KPNrNOpsxLTKsh" fill="rgb(198,130,168)" style="transform: none;">
        <g>
            <path id="p1Eboofv3J" d="M2305 3519 c-100 -14 -191 -53 -267 -116 -71 -58 -89 -85 -92 -138 -1 -30 -1 -30 65 -36 155 -16 252 -101 266 -233 12 -113 -38 -191 -158 -246 -60 -28 -87 -34 -165 -38 l-94 -5 -20 -42 c-11 -23 -20 -55 -20 -71 0 -16 -6 -56 -14 -89 -8 -33 -17 -91 -21 -130 -13 -138 -36 -248 -64 -304 -16 -31 -36 -91 -45 -134 -18 -89 -59 -214 -86 -261 -40 -71 -50 -204 -21 -300 5 -17 21 -71 36 -121 37 -123 84 -222 122 -256 18 -16 33 -33 33 -39 0 -42 89 -66 326 -89 56 -6 125 -13 155 -16 892 -88 1228 -29 1525 269 112 112 188 236 238 387 75 222 94 428 77 803 -24 521 -77 702 -262 903 -108 117 -399 215 -739 247 -85 9 -200 20 -255 26 -55 6 -172 15 -260 20 -88 5 -169 11 -180 14 -11 2 -47 0 -80 -5z m1502 -517 c74 -38 135 -105 164 -181 28 -75 24 -195 -7 -238 -29 -39 -82 -73 -113 -73 -37 0 -116 40 -188 94 -82 62 -124 142 -130 249 -5 85 12 128 67 165 47 32 122 26 207 -16z"></path>
        </g>
    </g>
    <g id="l6wcV75ByATJH8iIBaqnDBe" fill="rgb(205,143,182)" style="transform: none;">
        <g>
            <path id="p102pVvC8A" d="M3140 3310 c-36 -5 -83 -16 -104 -25 -68 -29 -223 -36 -351 -17 -109 17 -162 8 -234 -38 -50 -32 -111 -101 -111 -125 0 -3 -9 -18 -20 -33 -12 -17 -25 -64 -35 -127 -12 -73 -23 -108 -40 -131 -13 -17 -27 -44 -31 -60 -4 -16 -10 -33 -14 -39 -31 -43 -63 -119 -75 -178 -7 -40 -25 -98 -40 -130 -14 -33 -39 -108 -55 -169 -24 -94 -37 -122 -89 -199 -33 -49 -65 -106 -70 -127 -6 -20 -22 -80 -37 -132 -49 -175 -31 -249 78 -310 34 -19 87 -57 118 -85 50 -45 182 -119 304 -170 46 -19 164 -35 298 -40 53 -2 116 -6 140 -10 24 -4 46 -6 51 -6 7 1 82 -37 117 -59 31 -19 168 -80 235 -105 67 -25 125 -66 125 -90 0 -6 -9 -21 -20 -33 -26 -28 -24 -28 79 4 166 50 279 119 407 248 112 112 188 236 238 387 75 222 94 428 77 803 -24 519 -78 706 -259 900 -39 42 -126 95 -137 84 -4 -3 -32 0 -63 8 -63 15 -369 17 -482 4z m665 -303 c67 -34 128 -99 162 -172 73 -160 0 -337 -133 -322 -89 10 -236 123 -275 212 -31 70 -38 183 -14 235 10 22 32 49 49 60 43 29 141 23 211 -13z"></path>
        </g>
    </g>
    <g id="l4p0o7Q0trkiCBYh2xypMfj" fill="rgb(210,153,192)" style="transform: none;">
        <g>
            <path id="pWt9MjvQR" d="M3823 3187 c-3 -29 -34 -97 -45 -97 -12 0 -10 14 5 29 10 11 8 11 -13 1 -14 -7 -30 -20 -36 -29 -14 -19 9 -41 103 -101 125 -79 192 -246 148 -371 -26 -72 -79 -113 -143 -111 -44 2 -135 51 -201 109 -54 47 -111 144 -111 188 0 35 -32 104 -51 110 -11 4 -17 11 -14 16 4 5 -19 -8 -49 -29 -31 -20 -59 -47 -62 -59 -3 -13 -10 -23 -15 -23 -5 0 -9 -6 -9 -14 0 -8 -10 -18 -22 -22 -24 -7 -33 -14 -82 -61 -19 -18 -42 -35 -52 -37 -39 -8 -64 -19 -64 -26 0 -11 -56 -32 -85 -32 -14 0 -25 -4 -25 -8 0 -9 -38 -20 -85 -26 -16 -2 -43 -8 -60 -13 -16 -5 -37 -9 -45 -9 -8 0 -31 -3 -50 -6 -19 -3 -55 -9 -79 -12 -46 -7 -150 -58 -164 -81 -4 -7 -14 -13 -20 -13 -15 0 -39 -27 -92 -103 -53 -78 -71 -106 -91 -142 -9 -16 -60 -73 -115 -125 -110 -106 -127 -137 -136 -241 -7 -89 14 -142 66 -168 49 -25 148 -58 196 -66 22 -3 94 -19 160 -35 154 -36 164 -39 211 -45 21 -3 53 -8 69 -10 17 -3 50 -7 75 -10 234 -29 473 -123 590 -232 54 -49 90 -97 90 -119 0 -3 -7 -1 -15 6 -9 7 -18 10 -22 6 -3 -3 -1 -6 5 -6 6 0 16 -17 23 -37 6 -21 20 -49 29 -63 10 -14 20 -40 23 -59 3 -18 7 -35 9 -37 11 -10 113 68 194 150 194 195 287 428 315 795 13 166 -2 572 -27 754 -28 200 -85 357 -169 467 -54 71 -60 75 -62 47z"></path>
            <path id="p1D0phVa9E" d="M3508 3064 c-39 -17 -58 -55 -38 -79 12 -14 44 -9 35 5 -9 14 6 38 26 43 11 3 19 14 19 26 0 12 -1 21 -2 20 -2 0 -19 -7 -40 -15z"></path>
        </g>
    </g>
    <g id="l6yZSBcspbLrzE2aPoTmUnh" fill="rgb(215,163,201)" style="transform: none;">
        <g>
            <path id="p13FCwsKCp" d="M4013 2811 c-7 -11 -9 -22 -4 -25 4 -3 6 -29 4 -58 -2 -29 -4 -69 -4 -88 0 -49 -43 -172 -76 -217 -15 -21 -57 -61 -94 -90 -61 -47 -70 -52 -104 -46 -27 4 -41 2 -49 -8 -20 -26 -67 -50 -124 -65 -31 -8 -79 -25 -107 -38 -102 -48 -124 -51 -220 -27 -118 31 -370 29 -455 -2 -71 -26 -98 -44 -115 -77 -31 -60 -28 -77 28 -135 75 -78 199 -129 447 -185 52 -12 136 -35 185 -50 50 -15 123 -38 163 -51 39 -12 72 -26 72 -31 0 -4 4 -8 9 -8 22 0 170 -93 210 -132 57 -56 65 -78 45 -131 -27 -74 -57 -198 -49 -205 10 -10 90 88 138 169 143 239 190 523 168 1003 -11 229 -29 418 -49 489 -7 26 -8 26 -19 8z"></path>
        </g>
    </g>
</svg>