<?xml version="1.0" encoding="utf-8"?>
<svg viewBox="28.187 113.071 430.132 193.602" xmlns="http://www.w3.org/2000/svg" xmlns:bx="https://boxy-svg.com">
  <defs>
    <linearGradient id="color-0" bx:pinned="true">
      <stop style="stop-color: rgb(171, 19, 19);"/>
    </linearGradient>
  </defs>
  <g>
    <title>Onani</title>
    <g>
      <title>Outline</title>
      <path d="M 149.8 306.048 C 146.06 304.568 143.049 301.257 142.133 297.647 C 141.353 294.534 141.862 289.591 143.276 286.63 C 145.149 282.576 144.967 281.932 141.265 279.264 C 139.529 278.03 137.298 276 136.288 274.818 C 135.332 273.63 134.231 272.642 133.873 272.642 C 133.547 272.642 131.541 274.42 129.441 276.596 C 124.785 281.488 121.134 283.465 111.273 286.677 C 100.317 290.287 97.489 290.334 94.202 286.923 C 91.92 284.547 90.864 284.501 88.307 286.63 C 81.921 291.814 78.91 293.3 75.529 292.657 C 74.567 292.457 71.789 291.024 69.319 289.392 C 66.9 287.765 63.292 285.589 61.376 284.547 C 54.663 280.944 43.21 272.296 40.106 268.493 C 35.902 263.351 35.217 260.782 36.04 252.972 L 36.404 249.368 L 33.117 245.951 C 27.548 240.124 27.045 237.556 29.874 228.611 C 31.288 224.211 31.338 223.965 30.836 220.209 C 29.969 214.13 30.836 211.954 36.266 206.173 C 40.376 201.773 43.94 196.637 46.542 191.202 C 49.006 186.059 52.017 183.245 56.856 181.461 C 60.414 180.18 61.237 180.08 67.999 180.033 C 78.087 180.033 90.412 181.759 95.296 183.889 C 97.854 185.024 100.041 185.269 100.776 184.48 C 101.135 184.035 101.505 182.303 101.688 179.981 C 102.008 175.534 103.013 173.556 106.069 171.333 C 109.72 168.665 114.283 169.555 120.128 174.154 C 121.819 175.487 125.106 177.857 127.343 179.489 C 132.503 183.146 135.879 186.949 137.89 191.249 C 139.895 195.549 140.624 195.602 142.911 191.547 C 145.281 187.3 149.668 182.356 152.403 180.87 C 155.142 179.342 159.253 178.898 162.629 179.688 C 163.954 179.981 167.015 181.215 169.478 182.402 C 172.816 184.035 174.909 184.678 178.02 185.123 C 184.77 186.106 188.058 188.634 189.472 193.917 C 190.069 196.093 190.069 196.982 189.61 199.504 C 189.246 201.628 189.201 204.149 189.472 207.806 C 190.019 215.71 189.885 217.939 188.378 224.954 C 186.688 232.658 186.279 236.415 186.87 238.147 C 187.235 239.235 187.649 239.434 190.157 239.68 C 196.593 240.323 198.924 244.325 199.698 256.237 C 199.747 256.781 201.753 256.09 202.847 255.096 C 204.769 253.318 205.913 251.094 207.962 245.313 C 209.515 240.914 210.062 239.925 212.526 237.257 C 215.681 233.8 215.681 233.847 213.852 228.364 C 212.896 225.398 212.896 225.199 213.581 222.585 C 214.625 218.729 216.133 217.05 220.652 214.627 C 224.077 212.796 224.581 212.351 224.719 211.164 C 224.989 208.794 224.442 207.554 221.657 204.348 C 215.448 197.128 214.442 189.616 219.011 184.778 C 221.614 182.005 224.353 180.823 229.376 180.279 C 231.657 179.981 233.85 179.542 234.215 179.191 C 234.624 178.846 234.85 177.611 234.85 175.832 C 234.9 171.579 235.994 165.799 237.364 162.833 C 238 161.399 239.557 158.977 240.739 157.497 C 244.164 153.15 245.353 151.319 245.353 150.183 C 245.353 149.592 244.391 148.007 243.253 146.573 C 240.789 143.561 240.242 142.227 240.739 140.302 C 241.789 136.446 243.48 134.416 248.319 131.502 C 253.252 128.49 255.898 125.968 258.589 121.715 C 262.561 115.297 265.164 113.565 271.373 113.167 C 277.262 112.769 280.09 113.565 282.786 116.379 C 286.029 119.79 286.803 124.237 285.251 130.56 C 284.383 134.317 283.107 136.645 279.638 140.846 C 278.085 142.718 276.256 145.392 275.571 146.773 C 274.433 149.195 274.34 149.692 274.34 156.262 L 274.34 163.177 L 276.394 163.329 C 278.494 163.476 283.654 161.797 294.836 157.298 C 301 154.829 303.371 154.63 308.989 156.163 C 314.696 157.749 316.337 159.076 318.027 163.576 C 318.712 165.401 320.171 168.32 321.315 170.052 C 324.005 174.101 324.784 176.178 324.784 179.243 C 324.784 182.157 325.469 183.836 327.618 185.96 C 329.944 188.335 331.269 189.125 332.778 189.125 C 334.418 189.125 335.557 188.335 338.755 185.123 C 342.634 181.215 345.788 179.834 353.407 178.699 C 355.323 178.4 359.389 177.213 362.45 176.031 C 369.798 173.212 373.858 172.521 378.515 173.258 C 380.476 173.556 384.405 174.154 387.282 174.598 C 390.525 175.089 394.178 176.031 397.006 177.114 C 399.47 178.103 401.663 178.746 401.796 178.547 C 401.983 178.354 401.067 177.26 399.834 176.078 C 397.508 173.855 396.459 171.831 395.547 167.975 C 395 165.6 393.305 164.167 390.525 163.622 C 388.194 163.131 384.089 161.452 382.625 160.364 C 378.836 157.497 377.786 151.863 380.25 148.007 C 382.078 145.24 383.813 144.204 388.332 143.309 C 395.862 141.881 404.353 143.215 418.827 148.206 C 422.385 149.44 424.308 149.739 429.783 150.084 C 437.821 150.529 439.965 151.319 441.97 154.583 C 443.025 156.262 443.252 157.204 443.252 159.521 C 443.202 164.71 439.644 168.613 433.711 170.052 C 431.882 170.497 429.921 171.333 429.418 171.878 C 428.871 172.369 428.098 174.101 427.684 175.687 C 426.678 179.29 425.357 181.613 422.844 183.836 C 421.568 185.024 421.021 185.76 421.335 186.106 C 421.612 186.358 423.346 187.499 425.219 188.634 C 429.374 191.149 431.794 193.571 433.164 196.537 C 434.761 199.896 434.893 201.183 434.075 204.547 C 433.07 208.794 433.434 212.106 435.672 218.776 C 437.042 222.976 437.545 225.199 437.545 227.376 C 437.545 232.366 436.86 233.899 432.661 238.399 C 429.053 242.201 428.871 242.5 428.871 244.57 C 428.915 247.882 430.512 250.795 433.937 253.516 C 437.998 256.828 439.556 258.507 442.384 262.561 C 443.799 264.638 445.991 267.008 447.676 268.341 C 451.649 271.454 454.527 274.818 456.168 278.328 C 459.14 284.647 459.046 288.309 455.803 292.113 C 454.024 294.142 454.024 294.142 450.693 294.142 C 447.952 294.09 446.903 293.844 444.848 292.703 C 441.108 290.585 432.246 283.319 428.783 279.51 C 425.169 275.555 425.081 275.509 417.778 277.141 C 411.888 278.422 407.326 278.475 402.392 277.339 C 398.331 276.444 394.178 276.444 382.532 277.586 C 366.605 279.118 361.577 278.82 355.644 276 C 353.18 274.818 352.086 274.572 350.395 274.766 C 348.39 275.011 335.241 278.72 334.369 279.311 C 332.911 280.3 323.69 281.64 316.796 281.886 C 308.625 282.184 306.299 281.886 297.62 279.463 C 294.52 278.574 291.962 278.376 280.963 278.129 C 268.682 277.785 267.81 277.731 265.533 276.644 C 257.727 272.893 257.816 263.597 265.71 258.554 C 267.494 257.419 267.721 257.073 267.721 255.546 C 267.721 253.814 263.479 241.359 261.876 238.445 C 260.462 235.777 254.346 233.256 250.512 233.747 C 247.407 234.145 240.651 235.186 240.011 235.38 C 239.645 235.479 239.419 236.467 239.419 237.948 C 239.419 239.287 239.099 241.458 238.734 242.844 C 237.862 246.051 234.944 248.97 231.154 250.451 C 227.685 251.837 226.547 253.171 226.724 255.646 C 226.862 257.471 226.956 257.571 229.558 258.554 C 233.253 259.992 235.944 262.608 236.906 265.726 C 237.591 267.996 237.591 268.394 236.955 270.565 C 235.309 275.853 231.884 277.685 222.072 278.574 C 219.194 278.82 215.813 279.264 214.537 279.51 C 210.885 280.253 202.117 281.488 195.317 282.231 C 188.102 283.021 186.279 283.711 181.897 287.321 C 174.594 293.3 173.175 294.534 169.07 298.688 C 164.368 303.433 162.125 304.861 157.562 305.996 C 154.098 306.89 152.044 306.89 149.8 306.048 Z M 159.115 303.971 C 162.584 302.889 164.181 301.695 168.7 297.103 C 170.899 294.88 173.909 292.013 175.462 290.779 C 187.328 280.944 185.55 281.687 203.123 279.51 C 207.919 278.966 213.443 278.129 215.448 277.785 C 217.459 277.386 220.84 276.942 222.978 276.795 C 228.823 276.444 232.066 275.409 233.801 273.432 C 237.773 268.839 235.447 262.017 229.281 260.092 C 227.917 259.648 226.409 258.852 225.995 258.361 C 224.442 256.535 225.265 252.182 227.365 250.65 C 227.961 250.252 229.508 249.462 230.834 248.923 C 235.856 246.893 238.049 243.435 238.049 237.457 C 238.049 234.443 238.96 233.747 243.8 233.104 C 245.805 232.858 248.457 232.413 249.689 232.121 C 251.607 231.676 252.474 231.775 255.075 232.565 C 259.092 233.847 261.921 235.631 263.064 237.649 C 263.567 238.544 265.119 242.447 266.533 246.349 C 269.821 255.447 269.865 257.816 266.809 259.548 C 261.191 262.707 259.456 269.037 263.064 273.238 C 265.164 275.707 267.356 276.1 278.174 276.1 C 288.582 276.1 292.371 276.544 301.27 278.767 C 305.658 279.855 307.392 280.054 314.79 280.054 C 323.734 280.101 329.347 279.411 334.601 277.586 C 336.109 277.042 339.484 276.053 342.087 275.356 C 344.733 274.619 347.246 273.829 347.705 273.584 C 349.164 272.741 352.815 272.987 354.732 274.028 C 359.301 276.544 367.24 277.486 375.228 276.497 C 377.013 276.298 380.294 276 382.532 275.901 C 384.819 275.754 388.879 275.409 391.62 275.111 C 396.044 274.572 397.1 274.619 401.663 275.555 C 404.447 276.1 407.369 276.596 408.099 276.696 C 410.105 276.895 415.264 276.152 419.877 275.063 C 423.85 274.128 423.938 274.128 425.855 275.063 C 426.954 275.555 428.507 276.942 429.374 278.077 C 431.561 281.096 443.571 290.732 446.676 291.966 C 453.113 294.587 457.908 290.732 456.714 283.857 C 455.759 278.621 452.748 274.221 446.721 269.33 C 445.03 267.996 442.566 265.282 441.014 263.053 C 439.461 260.882 437.086 258.162 435.716 256.98 C 434.346 255.792 432.429 254.16 431.473 253.318 C 429.6 251.638 427.634 247.981 427.457 245.706 C 427.225 242.4 427.457 241.85 431.335 237.801 C 434.804 234.145 435.219 233.548 435.716 230.986 C 436.495 227.323 435.948 223.62 433.617 217.05 C 431.794 211.855 431.517 208.596 432.523 204.939 C 433.252 202.172 433.07 199.65 431.882 197.128 C 430.468 194.116 428.96 192.635 424.761 190.113 C 420.788 187.692 419.739 186.802 419.739 185.76 C 419.739 185.316 420.976 183.742 422.435 182.204 C 424.717 179.834 425.264 178.945 426.087 176.125 C 426.589 174.299 427.225 172.369 427.501 171.831 C 428.142 170.497 430.788 169.11 433.981 168.42 C 440.599 166.939 443.799 160.656 440.694 155.221 C 439.418 152.904 436.722 151.863 432.291 151.962 C 427.501 152.062 422.341 151.02 414.353 148.306 C 404.039 144.848 395.547 143.707 388.741 144.848 C 383.813 145.638 382.532 146.474 381.023 149.639 C 379.747 152.255 379.929 154.284 381.62 157.052 C 382.99 159.322 384.222 160.065 389.382 161.698 C 393.857 163.084 395.685 164.266 396.37 166.243 C 396.591 167.033 397.188 168.765 397.602 170.099 C 398.15 171.731 399.149 173.357 400.563 174.797 C 403.216 177.558 403.944 178.846 403.216 179.635 C 402.392 180.524 401.436 180.379 396.37 178.5 C 393.443 177.412 389.797 176.476 386.459 176.031 C 383.537 175.633 379.747 175.042 378.062 174.745 C 374.041 174.054 370.665 174.645 362.903 177.512 C 359.616 178.699 354.959 180.033 352.406 180.425 C 345.462 181.56 342.175 183.146 338.711 187.148 C 335.789 190.459 332.727 191.547 330.22 190.061 C 328.254 188.978 324.375 184.579 323.873 182.999 C 323.645 182.157 323.326 180.18 323.231 178.647 C 323.005 175.487 322.364 173.954 319.58 169.853 C 318.53 168.32 317.21 165.652 316.613 163.968 C 315.337 160.112 313.784 158.93 308.121 157.497 C 303.056 156.209 300.724 156.456 294.974 158.831 C 288.129 161.651 280.594 164.366 278.312 164.81 C 275.301 165.401 273.29 164.71 272.875 163.032 C 272.328 160.954 272.467 151.564 273.107 149.347 C 273.836 146.627 276.073 142.918 279.405 138.816 C 282.693 134.814 284.063 131.357 284.339 126.459 C 284.609 122.358 283.974 119.644 282.422 117.76 C 280.461 115.543 278.814 115.051 273.107 114.952 C 265.533 114.899 264.025 115.688 259.958 122.212 C 257.174 126.612 253.888 129.824 249.507 132.444 C 245.032 135.107 243.297 136.792 242.474 139.36 C 241.651 141.981 242.021 143.116 244.668 146.182 C 247.816 149.838 247.54 151.073 241.883 158.286 C 240.463 160.112 238.916 162.586 238.414 163.821 C 237.453 166.15 236.22 173.258 236.22 176.57 C 236.22 180.425 234.9 181.314 228.464 181.958 C 224.536 182.356 221.978 183.491 220.017 185.661 C 218.282 187.592 218.188 187.844 218.05 191.401 C 217.824 196.345 218.647 198.614 222.299 202.909 C 225.724 206.963 226.271 207.952 226.271 210.128 C 226.271 212.796 225.403 213.785 221.338 215.856 C 217 218.132 215.951 219.32 214.951 223.029 C 214.266 225.545 214.31 225.744 215.404 228.803 C 217.183 233.548 217.045 234.297 213.852 237.801 C 211.476 240.423 210.885 241.458 209.332 245.805 C 207.233 251.837 206.228 253.662 203.764 256.09 C 202.3 257.471 201.615 257.863 200.477 257.716 C 198.56 257.518 197.969 256.137 197.466 250.795 C 197.278 248.526 196.781 246.004 196.366 245.115 C 195.317 242.944 193.079 241.657 189.793 241.259 C 185.87 240.768 185.317 240.025 185.317 235.133 C 185.362 232.565 185.826 229.254 186.87 224.702 C 188.29 218.43 188.378 217.74 188.058 213.094 C 187.555 206.817 187.555 203.705 188.058 198.708 C 188.378 195.052 188.334 194.461 187.373 192.337 C 185.87 188.978 183.997 187.844 177.969 186.702 C 175.186 186.159 171.993 185.269 170.899 184.678 C 164.683 181.215 159.026 180.08 154.828 181.414 C 151.54 182.456 148.022 185.913 144.691 191.401 C 142.088 195.648 140.624 196.784 139.028 195.701 C 138.618 195.45 137.475 193.624 136.476 191.646 C 134.1 187.048 131.68 184.433 126.018 180.325 C 123.465 178.454 120.04 175.932 118.304 174.645 C 112.825 170.596 108.72 170.251 105.566 173.656 C 103.649 175.78 102.964 177.904 102.92 181.858 C 102.92 183.69 102.693 184.48 101.776 185.416 C 100.362 187.001 99.858 186.949 94.654 185.223 C 90.273 183.789 81.689 182.204 78.225 182.204 C 77.125 182.204 74.612 181.958 72.563 181.613 C 69.778 181.168 67.629 181.168 63.844 181.613 C 54.989 182.601 51.149 184.971 47.912 191.646 C 45.128 197.38 42.337 201.429 37.41 206.916 C 32.206 212.75 31.288 214.82 32.161 218.875 C 32.891 222.385 32.658 225.001 31.338 229.003 C 28.554 237.257 28.874 239.434 33.803 244.624 C 37.913 248.923 38.322 250.105 37.366 254.996 C 36.449 259.695 37.183 262.508 40.376 266.609 C 43.57 270.717 55.348 279.756 62.971 283.91 C 64.982 284.998 68.314 286.975 70.369 288.356 C 74.612 291.124 76.529 291.72 79.086 290.931 C 80.777 290.433 84.335 288.11 88.036 284.998 C 90.594 282.822 92.467 282.968 94.749 285.442 C 96.069 286.923 96.986 287.467 98.583 287.713 C 101.185 288.157 102.555 287.865 110.908 285.197 C 120.725 281.985 124.333 280.002 128.94 275.111 C 131.453 272.443 133 271.156 133.735 271.156 C 134.465 271.156 135.834 272.244 137.795 274.373 C 139.486 276.1 141.492 277.93 142.314 278.376 C 146.105 280.446 146.701 282.675 144.691 286.876 C 143.32 289.743 142.773 294.335 143.503 297.249 C 144.142 299.677 146.79 303.135 148.801 304.071 C 150.717 304.96 156.147 304.913 159.115 303.971 Z" style="paint-order: fill; fill-rule: nonzero; fill: rgb(220, 20, 60);"/>
      <path d="M 246.491 213.785 C 245.214 212.949 245.032 212.55 243.938 208.648 C 243.391 206.764 242.11 203.453 241.104 201.329 C 238.872 196.637 239.005 195.403 242.159 193.718 C 244.938 192.144 247.176 192.29 251.745 194.314 C 256.49 196.438 257.356 197.427 257.086 200.493 C 256.49 207.507 254.893 211.808 252.523 212.995 C 250.374 214.13 247.584 214.475 246.491 213.785 Z M 251.607 211.808 C 253.523 211.018 254.937 207.063 255.717 200.493 C 255.987 197.772 255.943 197.725 251.059 195.648 C 246.949 193.87 245.076 193.718 242.795 194.859 C 240.557 196.046 240.513 196.982 242.568 201.083 C 243.574 203.061 244.711 206.126 245.17 207.905 C 246.353 212.75 247.54 213.492 251.607 211.808 Z" style="paint-order: fill; fill-rule: nonzero; fill: rgb(220, 20, 60);"/>
      <path d="M 303.42 249.86 C 301.504 248.333 298.216 243.979 296.205 240.276 C 295.112 238.199 285.936 213.639 284.201 208.051 C 282.881 203.751 282.969 202.072 284.842 198.415 C 285.708 196.737 287.4 193.179 288.537 190.605 C 291.139 184.825 292.006 183.491 294.332 181.659 C 296.481 179.986 298.399 179.834 299.725 181.267 C 300.542 182.157 300.636 182.648 300.316 185.322 C 299.31 194.759 300.453 197.725 306.751 202.219 C 312.049 205.974 312.006 205.729 312.049 227.13 C 312.049 244.377 312.049 244.968 311.044 247.443 C 309.354 251.737 306.802 252.58 303.42 249.86 Z M 309.448 247.689 C 310.359 245.759 310.404 245.016 310.404 226.931 C 310.404 208.198 310.404 208.151 309.354 206.572 C 308.807 205.729 307.575 204.495 306.614 203.904 C 301.78 200.691 298.946 196.789 298.443 192.682 C 298.354 191.693 298.443 189.125 298.67 186.949 C 299.222 182.502 299.039 181.713 297.62 181.713 C 295.565 181.713 292.963 184.433 291.184 188.482 C 290.272 190.605 288.493 194.314 287.212 196.737 C 283.836 203.107 283.836 203.061 290.09 220.309 C 295.979 236.567 297.482 240.177 300.36 244.226 C 304.558 250.252 307.669 251.445 309.448 247.689 Z" style="paint-order: fill; fill-rule: nonzero; fill: rgb(220, 20, 60);"/>
      <path d="M 342.86 233.999 C 341.49 231.676 341.081 228.312 341.313 220.601 C 341.628 210.521 342.313 208.847 347.108 206.864 C 351.489 205.091 355.87 205.729 357.196 208.35 C 357.428 208.894 357.655 212.152 357.699 215.61 C 357.699 220.309 357.931 222.631 358.616 224.901 C 359.571 228.312 359.709 230.242 359.025 231.676 C 358.616 232.513 358.019 232.612 354.323 232.612 C 350.898 232.612 349.622 232.858 347.379 233.847 C 344.003 235.38 343.683 235.38 342.86 233.999 Z M 346.926 232.366 C 349.164 231.378 350.44 231.132 353.909 231.132 L 358.114 231.132 L 358.114 229.798 C 358.114 229.003 357.699 226.978 357.196 225.298 C 356.467 222.83 356.285 220.753 356.285 215.511 C 356.285 208.993 356.285 208.894 355.141 208.098 C 353.595 207.016 348.981 207.408 346.285 208.847 C 343.23 210.573 342.954 211.755 343.136 222.929 C 343.23 230.833 343.501 233.6 344.092 233.6 C 344.141 233.6 345.418 233.057 346.926 232.366 Z" style="paint-order: fill; fill-rule: nonzero; fill: rgb(220, 20, 60);"/>
      <path d="M 391.211 250.995 C 388.967 250.451 387.736 248.134 387.691 244.425 C 387.691 241.259 388.741 239.334 391.57 237.404 C 394.448 235.38 395.271 234.391 396.277 231.869 C 398.464 226.188 395.862 221.151 388.282 216.353 C 386.504 215.218 384.863 213.884 384.586 213.341 C 383.951 212.053 383.996 209.93 384.769 207.361 C 385.133 206.173 385.548 203.506 385.73 201.481 C 385.868 199.404 386.183 197.38 386.415 197.035 C 387.144 195.747 390.614 196.292 394.724 198.263 C 405.453 203.406 405.408 203.354 406.044 208.25 C 406.502 212.007 407.369 214.183 409.651 217.295 C 412.53 221.197 412.254 222.83 407.685 228.903 C 405.132 232.267 404.177 235.532 404.177 240.768 C 404.177 245.607 403.58 248.233 402.254 249.117 C 401.387 249.713 398.15 250.404 393.26 251.094 C 392.625 251.147 391.708 251.147 391.211 250.995 Z M 398.1 248.725 C 399.878 248.379 401.574 247.935 401.796 247.788 C 402.072 247.589 402.392 244.968 402.53 241.902 C 402.85 235.034 403.713 231.869 406.182 228.511 C 410.927 222.186 411.021 221.695 408.143 217.494 C 406.093 214.528 404.673 210.866 404.673 208.596 C 404.673 206.372 403.492 204.149 401.889 203.354 C 395.359 200.095 390.338 198.018 388.967 198.018 L 387.327 198.018 L 387.327 201.083 C 387.327 202.862 386.913 205.53 386.366 207.408 C 384.952 212.106 385.228 212.796 389.514 215.464 C 394.171 218.384 397.1 221.794 398.055 225.398 C 398.74 227.967 398.74 228.364 398.055 230.887 C 397.232 234.046 395 236.959 392.072 238.843 C 390.978 239.533 389.929 240.668 389.609 241.505 C 388.924 243.243 389.2 247.537 390.067 248.672 C 390.796 249.614 393.763 249.661 398.1 248.725 Z" style="paint-order: fill; fill-rule: nonzero; fill: rgb(220, 20, 60);"/>
      <path d="M 69.916 267.95 C 67.678 266.265 65.486 261.672 65.486 258.507 C 65.486 257.272 65.944 254.651 66.447 252.779 C 67.402 249.415 67.402 249.169 66.673 246.647 C 66.033 244.425 65.348 243.488 62.519 240.715 C 56.536 234.888 55.944 231.524 59.729 224.31 C 61.784 220.402 62.701 217.594 63.706 212.106 C 63.983 210.474 64.573 208.35 65.027 207.408 C 67.723 201.727 75.391 197.672 79.728 199.65 C 81.512 200.493 82.33 202.271 83.241 207.607 C 83.473 209.192 84.385 212.007 85.158 213.884 C 86.893 217.986 87.031 220.355 85.661 224.357 C 84.473 227.768 84.335 232.712 85.39 236.322 C 86.484 240.27 86.302 242.049 84.335 246.548 C 82.65 250.304 81.463 253.662 78.678 262.163 C 78.131 263.848 77.082 266.171 76.396 267.207 C 75.253 268.885 74.844 269.184 73.336 269.184 C 72.242 269.184 71.01 268.74 69.916 267.95 Z M 75.711 265.627 C 76.308 264.439 77.584 261.081 78.496 258.062 C 79.407 255.096 81.186 250.304 82.418 247.391 C 83.655 244.524 84.661 241.505 84.661 240.668 C 84.661 239.832 84.247 237.702 83.744 235.976 C 82.556 231.822 82.606 229.354 83.976 224.901 C 85.528 219.963 85.435 217.939 83.562 213.393 C 82.694 211.31 81.733 208.098 81.463 206.273 C 80.777 201.382 80.413 200.984 77.125 200.984 C 73.518 200.984 70.369 202.564 67.905 205.63 C 66.309 207.607 65.85 208.648 65.259 211.755 C 63.933 218.384 63.248 220.554 61.148 224.556 C 57.497 231.676 57.862 233.999 63.657 239.878 C 66.717 242.991 67.402 244.033 68.087 246.302 C 68.817 248.871 68.817 249.169 67.999 252.281 C 66.629 257.716 66.629 259.695 67.999 262.906 C 69.319 265.919 71.281 267.698 73.336 267.698 C 74.297 267.698 74.8 267.253 75.711 265.627 Z" style="paint-order: fill; fill-rule: nonzero; fill: rgb(220, 20, 60);"/>
      <path d="M 159.347 264.884 C 158.888 264.738 157.154 263.848 155.552 262.906 C 149.988 259.595 149.348 256.98 149.574 237.948 C 149.712 224.012 149.348 225.943 153.32 219.021 C 154.368 217.143 154.69 215.856 155.005 212.299 C 155.237 209.883 155.601 207.455 155.878 206.916 C 156.147 206.419 157.154 205.729 158.11 205.383 C 162.037 204.097 165.004 206.916 167.015 213.785 C 168.611 219.267 168.7 220.402 168.794 238.79 C 168.838 251.346 168.75 256.137 168.291 257.716 C 167.058 262.116 162.584 265.726 159.347 264.884 Z M 163.634 262.116 C 164.507 261.525 165.601 260.239 166.098 259.297 C 167.015 257.617 167.058 256.927 166.969 238.047 C 166.921 218.577 166.921 218.529 165.739 214.575 C 165.097 212.399 164.043 209.783 163.407 208.794 C 162.313 207.063 162.037 206.916 160.076 206.916 C 158.838 206.916 157.656 207.162 157.336 207.507 C 157.015 207.853 156.789 209.339 156.789 210.866 C 156.789 214.774 155.739 218.132 153.502 221.543 L 151.54 224.456 L 151.54 240.522 C 151.54 259.15 151.402 258.606 156.147 261.572 C 159.391 263.55 161.491 263.696 163.634 262.116 Z" style="paint-order: fill; fill-rule: nonzero; fill: rgb(220, 20, 60);"/>
    </g>
    <g style="">
      <title>Colour</title>
      <path fill-rule="evenodd" clip-rule="evenodd" d="M 148.568 299.525 C 147.248 298.291 147.154 298.092 147.248 294.686 C 147.291 291.667 147.568 290.632 149.071 287.42 C 150.077 285.39 150.856 283.067 150.856 282.33 C 150.856 280.3 149.348 278.376 146.291 276.345 C 144.784 275.356 143.641 274.32 143.779 274.075 C 143.961 273.829 143.779 273.729 143.458 273.876 C 143.138 274.028 142.635 273.929 142.364 273.729 C 141.63 273.238 138.618 268.341 138.254 267.107 C 137.933 265.919 137.519 265.328 135.696 263.152 C 134.282 261.572 133.138 261.572 131.41 263.298 C 130.901 263.848 130.31 264.094 130.084 263.895 C 129.901 263.649 129.851 263.749 129.989 264.041 C 130.172 264.392 129.762 265.427 129.166 266.464 C 128.531 267.452 127.526 269.33 126.891 270.664 C 125.52 273.63 122.459 276.053 118.35 277.538 C 117.388 277.884 116.614 278.376 116.614 278.673 C 116.614 278.919 116.339 279.065 116.068 278.919 C 115.747 278.82 114.471 279.019 113.239 279.364 C 112.007 279.709 110.814 279.908 110.588 279.756 C 110.405 279.61 110.223 279.709 110.223 279.955 C 110.223 280.201 108.852 280.797 107.162 281.289 C 105.433 281.786 102.781 282.675 101.185 283.319 C 98.174 284.547 96.892 284.454 97.301 283.12 C 97.44 282.622 97.257 282.722 96.804 283.413 C 95.981 284.547 95.158 284.501 95.158 283.319 C 95.158 282.33 97.301 280.054 98.218 280.054 C 99.45 280.054 103.013 278.82 105.063 277.685 C 106.024 277.141 107.665 276.497 108.627 276.298 C 112.869 275.509 119.172 271.009 120.542 267.95 C 120.951 267.008 121.499 266.218 121.73 266.218 C 121.957 266.218 122.001 265.972 121.863 265.726 C 121.73 265.427 121.863 265.083 122.233 264.936 C 122.642 264.784 123.095 264.094 123.277 263.351 C 123.465 262.608 123.647 261.818 123.736 261.525 C 125.653 254.061 126.476 240.668 125.47 232.858 C 125.382 232.068 125.106 227.23 124.88 222.186 C 124.509 213.738 124.421 212.75 123.277 210.082 C 122.593 208.449 121.499 206.32 120.863 205.284 C 120.223 204.296 119.631 202.862 119.536 202.119 C 119.493 201.382 119.084 200.493 118.62 200.147 C 118.212 199.802 117.299 198.562 116.659 197.328 C 116.018 196.093 113.969 193.425 112.184 191.401 C 110.361 189.37 108.852 187.445 108.852 187.148 C 108.852 186.849 108.67 186.702 108.444 186.849 C 107.985 187.2 106.98 183.344 107.35 182.402 C 107.439 182.057 107.577 180.279 107.621 178.4 C 107.709 174.399 108.212 174.101 111.499 175.832 C 112.687 176.423 113.924 176.915 114.283 176.915 C 115.289 176.915 120.493 181.022 120.361 181.713 C 120.316 182.005 120.449 182.157 120.675 181.958 C 120.951 181.812 122.001 182.303 123.051 183.047 C 124.1 183.789 125.288 184.678 125.697 184.924 C 129.669 187.499 131.133 189.225 133.233 193.671 C 137.022 201.581 137.752 202.464 140.624 202.464 C 141.95 202.464 144.464 201.183 144.464 200.493 C 144.464 200.247 144.734 199.749 145.055 199.404 C 146.016 198.316 147.525 195.403 147.839 193.917 C 148.022 193.179 148.342 192.682 148.568 192.834 C 148.844 192.98 149.027 192.782 149.027 192.337 C 149.027 191.348 150.353 189.125 150.988 189.125 C 151.54 189.125 153.822 186.557 153.683 186.059 C 153.634 185.814 153.96 185.661 154.414 185.661 C 154.872 185.661 155.645 185.316 156.147 184.924 C 157.015 184.181 159.755 183.889 159.391 184.579 C 159.253 184.778 159.8 184.924 160.578 184.924 C 163.181 184.971 165.413 185.615 168.109 187.101 C 171.075 188.68 174.406 189.915 177.102 190.407 C 180.622 191.003 183.632 192.144 183.997 192.98 C 184.318 193.718 184.5 199.703 184.77 215.066 C 184.865 218.729 184.544 220.9 183.13 227.376 C 181.716 233.8 181.351 236.222 181.307 240.768 C 181.213 247.244 181.483 247.935 184.362 247.935 C 186.555 247.882 187.831 247.192 189.201 245.36 C 190.798 243.143 191.759 243.535 192.621 246.846 C 192.991 248.379 193.538 250.105 193.719 250.702 C 193.947 251.246 194.267 253.27 194.45 255.148 C 194.997 260.484 196.183 262.263 199.245 262.263 C 201.3 262.263 204.085 260.537 206.775 257.617 C 208.558 255.693 209.835 253.516 212.161 248.327 C 214.581 242.944 215.404 241.505 216.133 241.505 C 216.636 241.505 217.045 241.312 217.045 241.014 C 217.045 240.768 217.962 240.522 219.056 240.522 C 220.84 240.522 221.249 240.323 222.249 238.89 C 224.034 236.368 223.619 233.303 221.199 230.933 C 220.652 230.389 220.243 229.745 220.243 229.499 C 220.243 229.202 219.741 228.265 219.1 227.376 C 216.957 224.357 217.685 222.976 223.442 219.173 C 227.409 216.5 228.596 215.265 229.602 212.697 C 230.928 209.292 229.74 205.682 225.724 200.446 C 222.116 195.795 220.652 190.758 222.205 188.435 C 222.757 187.644 223.801 187.445 230.331 187.2 C 237.64 186.849 239.099 186.504 240.33 184.924 C 240.834 184.281 240.789 184.181 240.192 184.48 C 239.602 184.725 239.507 184.48 239.645 183.099 C 239.778 182.204 239.966 178.746 240.054 175.435 C 240.192 170.444 240.375 169.11 241.148 167.677 C 241.651 166.741 241.972 165.553 241.883 165.056 C 241.745 164.465 242.845 162.586 245.258 159.474 C 249.551 153.84 251.745 150.529 253.297 147.264 C 254.661 144.503 256.081 138.617 255.717 137.535 C 255.258 136.247 253.568 136.645 252.247 138.271 C 248.225 143.508 246.722 144.403 244.668 142.964 C 243.391 142.08 243.159 140.402 244.164 138.962 C 244.761 138.073 244.806 138.126 245.12 139.605 C 245.258 140.501 245.667 141.191 245.993 141.191 C 246.811 141.191 249.916 138.225 249.916 137.482 C 249.916 136.493 252.794 134.27 253.982 134.27 C 256.081 134.27 257.904 132.79 259.821 129.426 C 262.246 125.179 266.169 119.842 267.451 119.099 C 268.45 118.508 272.422 118.655 275.708 119.445 C 277.218 119.842 277.676 119.743 278.494 118.901 C 278.996 118.409 279.682 117.959 279.952 117.959 C 280.549 117.959 280.637 120.632 280.09 122.159 C 279.908 122.709 279.952 123.845 280.227 124.781 C 280.775 126.758 279.952 132.737 278.996 133.527 C 277.991 134.369 271.832 143.262 270.914 145.146 C 269.545 148.06 269.041 151.617 268.998 158.093 C 268.953 167.478 270.273 169.654 275.708 169.157 C 278.626 168.958 279.317 168.712 290.83 164.593 L 290.913 164.564 C 295.018 163.131 298.537 162.043 298.719 162.142 C 298.9 162.294 300.178 162.095 301.548 161.698 C 305.338 160.609 306.525 160.709 306.525 162.142 C 306.525 162.985 306.94 163.523 307.846 163.968 C 308.719 164.412 309.078 164.857 308.9 165.354 L 311.409 167.724 C 311.679 167.53 312.415 168.075 313.005 168.864 C 315.105 171.631 317.895 174.697 318.486 174.896 C 318.85 175.042 319.077 176.178 319.126 177.804 C 319.264 181.022 319.994 184.38 320.994 186.106 C 322.182 188.189 328.025 193.671 330.126 194.66 C 331.767 195.45 332.364 195.502 334.097 195.004 C 335.286 194.706 337.02 193.671 338.115 192.635 C 343.048 188.09 344.915 186.557 346.103 186.358 C 346.788 186.206 347.611 185.86 347.882 185.615 C 348.202 185.316 350.483 184.778 352.953 184.38 C 355.418 183.988 359.848 182.748 362.814 181.659 C 365.781 180.577 368.521 179.788 368.886 179.933 C 369.251 180.08 369.477 180.033 369.339 179.788 C 369.206 179.542 371.488 179.342 374.543 179.29 L 380.024 179.243 L 380.294 181.215 C 380.526 182.847 380.709 183.099 381.211 182.648 C 381.576 182.356 381.847 182.256 381.847 182.456 C 381.847 182.701 382.261 182.456 382.808 181.905 C 383.625 181.115 384.448 180.969 387.741 181.022 C 391.116 181.068 392.167 181.314 395.089 182.648 C 396.962 183.543 401.205 185.269 404.447 186.457 C 407.735 187.692 411.021 188.978 411.845 189.37 C 412.618 189.768 413.392 190.113 413.579 190.113 C 413.761 190.113 414.535 190.459 415.308 190.851 C 418.098 192.191 420.607 192.928 421.75 192.735 C 422.568 192.536 423.026 192.735 423.253 193.326 C 423.579 194.314 426.402 197.228 428.689 198.907 C 430.561 200.247 430.606 200.89 429.053 203.553 C 427.137 206.817 427.087 210.227 428.871 215.066 C 431.059 220.9 431.606 223.076 431.882 227.13 L 432.158 230.787 L 428.507 234.789 C 424.17 239.533 423.391 241.06 423.391 244.624 C 423.391 249.807 426.816 255.049 433.937 260.929 C 434.849 261.672 435.854 262.953 436.175 263.749 C 436.495 264.539 436.903 265.13 437.086 264.983 C 437.312 264.837 437.865 265.475 438.412 266.317 C 439.556 268.394 442.517 271.454 445.853 274.028 C 447.268 275.163 448.544 276.544 448.732 277.088 C 448.914 277.632 449.229 277.983 449.461 277.831 C 449.687 277.632 449.914 277.831 449.964 278.176 C 449.964 278.521 450.052 279.065 450.052 279.311 C 450.102 279.61 450.876 281.441 451.831 283.465 C 455.029 290.334 453.61 291.223 446.903 286.531 C 445.898 285.84 444.71 285.244 444.301 285.197 C 443.887 285.145 442.246 284.108 440.649 282.874 C 436.175 279.311 436.036 279.165 436.451 278.475 C 436.633 278.129 436.633 277.983 436.451 278.129 C 436.125 278.475 434.711 277.24 431.606 274.028 C 427.413 269.728 425.811 269.283 419.331 271.009 C 412.485 272.841 406.685 272.841 400.425 271.156 C 398.1 270.518 396.001 270.565 382.532 271.852 C 368.654 273.186 366.284 273.285 362.721 272.642 C 359.571 272.098 359.207 271.899 356.925 269.383 C 355.556 267.95 354.456 266.317 354.456 265.773 C 354.456 265.229 354.279 264.685 354.047 264.539 C 352.721 263.649 357.014 255.839 358.842 255.839 C 359.207 255.839 359.616 255.195 359.798 254.353 C 359.937 253.37 360.395 252.779 361.03 252.58 C 363.223 251.989 363.82 248.625 362.494 244.524 C 361.489 241.604 361.577 240.522 362.997 235.631 C 364.179 231.43 364.179 231.378 363.406 228.412 C 362.129 223.52 362.086 223.222 361.809 215.71 C 361.533 208.695 361.489 208.397 360.163 206.32 C 358.202 203.306 354.55 201.329 351.489 201.628 C 348.843 201.926 344.688 203.506 342.545 205.091 C 341.722 205.682 340.395 207.262 339.621 208.596 L 338.253 211.018 L 338.253 224.901 C 338.253 239.779 338.529 241.751 340.49 242.301 C 341.86 242.645 343.915 241.704 345.6 239.978 C 346.379 239.188 347.429 238.445 347.976 238.299 C 348.479 238.199 349.346 237.901 349.849 237.602 C 351.125 236.813 352.721 236.913 354.732 237.901 C 355.737 238.346 356.693 238.691 356.881 238.644 C 357.102 238.544 357.152 238.743 357.014 238.989 C 356.881 239.235 357.058 239.68 357.428 240.025 C 358.522 241.014 358.246 243.29 356.97 244.377 C 356.329 244.916 356.008 245.46 356.285 245.559 C 356.555 245.659 355.737 247.244 354.456 249.117 C 351.992 252.727 351.489 254.206 350.804 259.548 C 350.44 262.017 349.893 263.796 348.75 265.82 C 347.882 267.352 347.158 268.985 347.158 269.43 C 347.158 270.02 346.788 270.219 345.921 270.12 C 345.191 270.074 344.048 270.319 343.274 270.664 C 340.03 272.098 332.953 274.028 329.578 274.32 C 327.568 274.473 325.198 274.719 324.331 274.865 C 311.868 276.644 307.072 276.596 299.907 274.619 C 294.836 273.186 293.604 273.039 283.24 272.642 C 277.08 272.443 270.367 271.951 268.312 271.6 L 264.522 270.962 L 264.522 268.142 L 264.522 265.328 L 266.263 264.983 C 267.583 264.738 268.633 263.994 270.506 261.97 C 272.875 259.396 272.969 259.15 272.924 256.681 C 272.924 253.218 266.987 237.058 264.71 234.145 C 263.064 232.068 260.279 230.441 255.396 228.657 C 252.612 227.669 252.197 227.622 247.861 228.212 C 245.353 228.511 243.065 229.003 242.75 229.254 C 242.474 229.499 241.474 229.546 240.601 229.354 C 236.723 228.611 231.701 230.933 232.342 233.156 C 232.525 233.7 232.436 234.098 232.16 234.098 C 231.884 234.098 232.204 235.133 232.795 236.368 C 233.939 238.644 234.215 240.668 233.668 242.248 C 233.21 243.435 230.74 244.624 228.779 244.57 C 227.276 244.471 226.773 244.769 225.265 246.449 C 223.116 248.871 221.111 254.107 220.84 258.115 C 220.608 260.929 220.652 261.181 221.84 262.163 C 222.525 262.754 223.575 263.251 224.172 263.251 C 224.719 263.251 225.265 263.45 225.359 263.696 C 225.448 263.942 226.818 264.439 228.464 264.738 C 230.105 265.083 231.701 265.427 232.022 265.527 C 232.386 265.627 232.568 266.662 232.568 268.341 L 232.568 270.962 L 226.315 271.852 C 222.846 272.343 217.045 273.338 213.392 274.128 C 207.145 275.456 201.615 276.345 192.168 277.538 C 188.88 277.93 187.328 278.422 184.406 280.054 C 180.025 282.43 166.739 293.248 166.556 294.587 C 166.374 295.868 165.871 296.313 162.86 297.694 C 158.933 299.525 154.552 300.759 152.132 300.812 C 150.486 300.812 149.668 300.513 148.568 299.525 Z M 172.722 258.307 C 172.081 261.128 165.827 267.95 162.584 269.43 C 161.673 269.827 160.578 270.173 160.12 270.173 C 159.303 270.12 157.11 269.037 156.147 268.142 C 155.878 267.897 154.319 266.761 152.729 265.627 C 151.126 264.492 149.348 262.854 148.755 262.017 C 146.469 258.753 146.291 257.325 146.198 240.867 C 146.06 224.755 146.105 223.965 148.115 220.753 C 148.524 220.057 149.574 218.185 150.397 216.552 L 151.856 213.586 L 151.308 209.783 C 150.811 206.372 150.856 205.781 151.497 204.693 C 152.729 202.663 154.319 201.873 157.701 201.581 C 160.485 201.382 161.17 201.528 163.407 202.715 C 166.601 204.395 167.743 206.226 169.887 212.896 C 171.489 217.986 171.534 218.185 171.897 228.903 C 172.219 240.077 172.628 244.817 173.224 245.706 C 173.451 246.004 173.589 247.981 173.589 250.152 C 173.633 253.615 173.451 255.049 172.722 258.307 Z M 315.884 226.931 C 315.884 248.134 315.84 248.578 311.773 253.27 C 308.807 256.728 306.89 257.126 303.785 254.949 C 300.039 252.381 294.332 244.67 291.962 238.942 C 291.234 237.257 289.085 231.477 287.212 226.188 C 285.294 220.9 283.15 214.973 282.422 213.042 C 279.047 204.196 278.952 201.727 281.963 196.245 C 282.969 194.361 284.703 190.758 285.841 188.189 C 288.035 183.099 291.322 178.898 295.112 176.277 C 299.631 173.112 302.371 174.054 304.15 179.243 C 304.746 181.022 304.653 187.545 304.012 189.271 C 303.828 189.768 303.785 191.149 303.924 192.389 C 304.15 194.859 305.52 196.637 309.31 199.404 C 311.911 201.282 313.691 203.506 314.923 206.419 C 315.84 208.549 315.884 209.438 315.884 226.931 Z M 405.955 252.58 C 405.359 252.972 401.889 253.861 398.238 254.552 L 397.752 254.651 C 392.614 255.657 391.537 255.868 390.525 255.669 C 390.255 255.61 389.984 255.523 389.652 255.417 C 389.581 255.394 389.504 255.37 389.426 255.347 C 386.051 254.259 383.951 249.906 383.951 244.226 C 383.951 241.359 384.134 240.323 385.139 238.544 C 386.321 236.322 388.924 233.648 391.896 231.477 C 394.178 229.845 394.221 228.265 392.028 225.153 C 391.073 223.813 389.155 221.894 387.786 220.9 L 383.537 217.839 C 379.747 215.166 379.156 212.053 381.161 205.729 C 382.216 202.417 382.261 201.973 381.664 200.194 C 381.349 199.153 380.205 196.883 379.156 195.204 C 376.78 191.301 376.692 189.424 378.791 186.802 C 379.57 185.814 379.979 185.123 379.703 185.369 C 379.382 185.568 379.106 185.615 379.106 185.468 C 379.106 185.316 379.477 184.971 379.979 184.725 C 380.664 184.281 381.117 184.526 382.487 185.96 C 383.449 186.949 383.996 187.943 383.857 188.288 C 383.675 188.634 383.675 188.727 383.857 188.534 C 384.04 188.382 385.183 188.826 386.321 189.569 C 387.509 190.307 389.52 191.348 390.752 191.845 C 392.028 192.389 394.586 193.624 396.459 194.607 C 398.331 195.602 401.205 196.936 402.85 197.573 C 407.778 199.504 411.066 204.296 409.834 207.806 C 409.331 209.339 410.425 212.299 411.888 213.44 C 413.441 214.627 415.541 218.284 415.861 220.309 C 416.226 222.73 414.762 226.387 411.933 229.845 C 410.927 231.079 410.198 232.121 410.381 232.121 C 410.519 232.121 410.287 232.712 409.789 233.501 C 408.464 235.532 408.281 236.614 408.143 243.143 C 408.011 249.614 407.597 251.445 405.955 252.58 Z M 251.286 217.787 C 251.286 217.939 251.015 218.132 250.739 218.185 L 250.629 218.202 C 246.706 218.729 245.501 218.893 244.628 218.389 C 244.242 218.167 243.921 217.816 243.452 217.313 L 243.391 217.243 C 242.159 215.909 241.651 214.721 240.877 211.264 C 239.966 207.209 238.093 202.962 237.176 202.962 C 236.906 202.962 236.585 202.464 236.403 201.873 C 236.22 201.236 235.63 200.095 235.038 199.352 C 233.895 197.918 232.983 194.859 232.845 192.337 C 232.795 190.704 232.983 190.605 238.049 189.616 C 239.69 189.324 241.834 188.68 242.845 188.189 C 244.391 187.445 244.982 187.399 247.038 187.891 C 248.319 188.235 249.916 188.826 250.556 189.271 C 251.926 190.26 252.385 190.359 251.926 189.517 C 251.745 189.172 252.109 189.37 252.7 189.961 C 253.297 190.558 254.987 191.547 256.445 192.144 C 261.102 194.062 262.379 197.228 260.6 202.516 C 260.236 203.705 259.594 206.419 259.274 208.496 C 258.363 214.031 257.086 216.301 254.849 216.4 C 253.523 216.4 251.286 217.295 251.286 217.787 Z" style="paint-order: fill; fill-rule: evenodd; fill: url(#color-0);">
        <title>nAn</title>
      </path>
      <path d="M 413.441 179.887 C 412.894 179.734 411.569 178.746 410.519 177.611 C 409.469 176.476 408.872 175.979 409.242 176.523 C 409.972 177.611 409.242 177.014 404.856 172.813 C 403.58 171.579 401.983 170.198 401.298 169.701 C 399.973 168.712 399.652 166.443 400.751 165.453 C 401.619 164.663 401.298 163.084 400.066 161.651 C 399.016 160.463 395.685 158.883 392.807 158.24 C 391.94 158.041 390.89 157.596 390.525 157.251 C 390.155 156.906 388.288 155.964 386.415 155.174 C 383.449 153.94 382.99 153.594 382.99 152.553 C 382.99 151.517 383.267 151.272 384.819 150.926 C 385.824 150.728 388.056 150.183 389.747 149.739 C 392.167 149.148 394.178 149.002 398.42 149.248 C 403.9 149.54 406.138 150.038 414.491 152.805 C 419.054 154.284 424.579 155.765 427.042 156.209 C 432.065 157.006 434.395 157.105 435.672 156.508 C 438.18 155.42 440.191 157.842 438.733 160.211 C 437.633 161.996 436.08 162.985 432.479 164.02 C 428.231 165.254 425.993 166.542 424.623 168.467 C 423.253 170.497 422.479 172.913 422.799 174.2 C 423.115 175.633 421.292 178.056 418.965 179.243 C 417.093 180.18 415.723 180.325 413.441 179.887 Z" style="fill: url(#color-0);">
        <title>.</title>
      </path>
      <path d="M 76.899 286.923 C 75.894 287.42 75.209 287.958 75.391 288.11 C 75.755 288.555 77.352 288.058 78.269 287.221 C 78.634 286.876 79.225 286.531 79.545 286.431 C 79.866 286.285 81.463 284.998 83.059 283.512 C 85.478 281.289 86.346 280.002 87.854 276.696 C 88.904 274.473 91.097 270.465 92.831 267.798 C 94.522 265.182 96.345 262.263 96.804 261.326 C 97.257 260.438 97.898 259.297 98.124 258.852 C 98.903 257.372 102.235 252.136 102.505 251.889 C 102.643 251.737 103.516 250.404 104.471 248.923 C 107.577 243.834 109.996 240.522 109.129 242.5 C 108.941 242.892 109.217 242.693 109.814 242.002 C 110.361 241.312 110.952 240.815 111.184 240.867 C 111.366 240.967 111.637 240.569 111.775 240.124 C 111.958 239.633 112.869 238.743 113.831 238.147 C 115.156 237.305 115.654 236.666 115.842 235.432 C 116.018 234.098 115.842 233.6 114.422 232.121 C 112.459 230.143 110.997 226.831 111.046 224.702 C 111.09 222.929 112.554 219.267 113.554 218.331 C 114.786 217.243 114.471 215.856 112.642 214.031 C 111.681 213.141 110.726 212.351 110.543 212.351 C 110.311 212.351 110.311 212.106 110.499 211.755 C 110.681 211.409 110.637 211.363 110.311 211.561 C 109.996 211.755 109.312 211.561 108.765 211.164 C 108.212 210.719 107.941 210.374 108.212 210.374 C 108.444 210.374 108.941 210.673 109.312 211.018 C 109.676 211.31 109.538 211.065 109.035 210.374 C 108.488 209.684 107.846 208.695 107.577 208.151 C 106.936 206.817 106.709 201.429 107.256 200.493 C 107.488 200.095 107.709 199.451 107.759 199.106 C 107.846 198.708 108.212 198.018 108.582 197.573 C 108.991 197.081 109.312 196.438 109.312 196.146 C 109.312 195.251 106.665 193.525 104.886 193.279 C 104.013 193.127 103.013 192.881 102.737 192.682 C 102.461 192.536 102.052 192.337 101.776 192.337 C 100.776 192.237 98.539 191.447 98.036 190.95 C 97.716 190.704 97.44 190.605 97.44 190.804 C 97.44 190.95 96.345 190.658 95.069 190.16 C 88.54 187.644 77.17 186.059 67.54 186.358 C 59.917 186.557 57.723 187.001 54.392 189.125 C 52.248 190.506 51.332 192.337 51.332 195.303 C 51.332 197.228 51.105 197.824 49.597 199.451 C 48.685 200.493 47.498 201.581 46.951 201.873 C 46.448 202.172 45.354 203.705 44.581 205.284 C 43.255 208.051 41.199 210.275 38.598 211.855 C 34.122 214.575 33.714 218.331 37.592 220.501 C 39.829 221.742 40.88 222.73 39.924 222.73 C 39.647 222.73 39.553 222.976 39.691 223.275 C 39.874 223.567 39.421 224.603 38.691 225.597 C 34.67 231.079 33.161 234.098 32.985 237.111 C 32.847 239.434 34.167 240.768 39.327 243.535 C 41.382 244.624 43.708 246.15 44.487 246.946 C 45.719 248.18 45.813 248.479 45.399 249.713 C 45.128 250.451 43.895 252.136 42.663 253.417 C 39.509 256.728 39.509 258.307 42.708 262.906 C 43.94 264.738 45.442 266.464 45.995 266.761 C 46.542 267.107 48.045 268.294 49.276 269.383 C 51.42 271.325 52.403 272.209 52.79 272.396 C 52.254 271.852 52.21 271.565 52.795 271.6 C 52.657 271.226 52.409 270.88 52.138 270.658 L 51.563 270.418 C 51.746 270.418 51.95 270.512 52.138 270.658 C 52.409 270.88 52.657 271.226 52.795 271.6 C 53.005 272.221 53.116 272.565 52.79 272.396 C 54.21 273.858 59.116 277.164 64.965 281.078 L 65.203 281.242 L 66.148 281.874 L 66.154 281.874 C 69.143 283.875 72.325 286.004 75.391 288.11 C 75.209 287.958 75.894 287.42 76.899 286.923 C 79.086 285.84 79.319 284.255 77.584 282.622 C 76.667 281.786 76.44 281.687 76.44 282.33 C 76.44 282.722 76.214 282.921 75.982 282.774 C 75.711 282.622 75.623 281.932 75.711 281.242 C 75.849 280.546 75.755 280.154 75.485 280.3 C 75.253 280.499 74.938 280.3 74.8 279.855 C 74.662 279.463 74.253 279.264 73.927 279.411 C 73.568 279.51 73.065 279.51 72.789 279.311 C 72.009 278.82 73.065 277.685 74.662 277.339 C 72.727 277.737 71.507 277.661 68.452 275.608 C 62.502 270.249 58.778 267.493 57.038 259.548 C 56.558 258.887 56.32 258.507 57.038 257.571 C 58.116 253.604 59.96 252.487 63.43 250.65 C 64.563 248.807 64.701 247.876 63.43 246.548 C 65.806 247.835 62.745 245.36 59.552 243.488 C 57.679 242.348 55.579 240.815 54.895 240.124 C 53.022 238.247 52.061 234.642 52.476 230.933 C 52.746 228.265 53.116 227.323 55.989 222.777 C 59.094 217.839 59.182 217.594 58.911 215.365 C 58.497 212.252 58.59 209.731 59.049 209.385 C 59.232 209.239 59.552 208.297 59.729 207.308 C 59.917 206.273 60.192 205.436 60.37 205.436 C 60.552 205.436 61.01 204.693 61.331 203.85 C 62.016 202.219 62.927 201.282 65.944 199.106 C 66.806 198.415 68.176 197.181 68.911 196.292 C 70.186 194.805 70.645 194.607 73.706 194.314 C 78.358 193.87 82.65 194.706 84.335 196.438 C 86.667 198.807 87.125 200.346 87.169 205.284 C 87.169 209.684 87.213 209.883 88.633 211.462 C 92.053 215.365 92.373 220.753 89.451 226.879 C 87.578 230.833 87.401 233.156 88.81 234.742 C 90.135 236.222 91.053 238.644 91.053 240.616 C 91.053 242.745 90.224 245.951 89.677 245.951 C 89.18 245.951 86.937 250.503 86.937 251.492 C 86.937 251.837 86.578 252.925 86.12 253.861 C 85.661 254.803 84.799 257.272 84.247 259.297 C 83.655 261.326 82.97 263.55 82.694 264.24 C 82.418 264.936 82.197 265.773 82.103 266.118 C 82.059 266.464 81.644 267.306 81.235 267.996 C 80.827 268.693 80.595 269.383 80.733 269.529 C 80.871 269.675 80.595 270.418 80.092 271.156 C 79.595 271.951 79.181 272.794 79.181 273.039 C 79.181 273.829 76.899 275.608 75.849 275.608 C 75.121 275.608 75.076 275.754 75.485 276.298 C 75.938 276.895 75.755 277.042 74.662 277.339 C 73.065 277.685 72.009 278.82 72.789 279.311 C 73.065 279.51 73.568 279.51 73.927 279.411 C 74.253 279.264 74.662 279.463 74.8 279.855 C 74.938 280.3 75.253 280.499 75.485 280.3 C 75.755 280.154 75.849 280.546 75.711 281.242 C 75.623 281.932 75.711 282.622 75.982 282.774 C 76.214 282.921 76.44 282.722 76.44 282.33 C 76.44 281.687 76.667 281.786 77.584 282.622 C 79.319 284.255 79.086 285.84 76.899 286.923 Z" style="fill: url(#color-0);">
        <title>o</title>
      </path>
      <path d="M 244.641 138.391 L 244.645 138.391 L 244.645 138.396 L 244.641 138.396 L 244.641 138.391 Z M 244.645 138.391 L 244.648 138.391 L 244.648 138.396 L 244.645 138.396 L 244.645 138.391 Z M 244.648 138.391 L 244.652 138.391 L 244.652 138.396 L 244.648 138.396 L 244.648 138.391 Z M 244.652 138.391 L 244.657 138.391 L 244.657 138.396 L 244.652 138.396 L 244.652 138.391 Z M 244.657 138.391 L 244.661 138.391 L 244.661 138.396 L 244.657 138.396 L 244.657 138.391 Z M 244.661 138.391 L 244.665 138.391 L 244.665 138.396 L 244.661 138.396 L 244.661 138.391 Z M 244.665 138.391 L 244.67 138.391 L 244.67 138.396 L 244.665 138.396 L 244.665 138.391 Z M 244.677 138.391 L 244.681 138.391 L 244.681 138.396 L 244.677 138.396 L 244.677 138.391 Z M 244.69 138.391 L 244.694 138.391 L 244.694 138.396 L 244.69 138.396 L 244.69 138.391 Z M 244.699 138.391 L 244.701 138.391 L 244.701 138.396 L 244.699 138.396 L 244.699 138.391 Z M 244.701 138.391 L 244.706 138.391 L 244.706 138.396 L 244.701 138.396 L 244.701 138.391 Z M 244.706 138.391 L 244.71 138.391 L 244.71 138.396 L 244.706 138.396 L 244.706 138.391 Z M 244.71 138.391 L 244.714 138.391 L 244.714 138.396 L 244.71 138.396 L 244.71 138.391 Z M 244.714 138.391 L 244.719 138.391 L 244.719 138.396 L 244.714 138.396 L 244.714 138.391 Z M 244.719 138.391 L 244.723 138.391 L 244.723 138.396 L 244.719 138.396 L 244.719 138.391 Z M 244.723 138.391 L 244.727 138.391 L 244.727 138.396 L 244.723 138.396 L 244.723 138.391 Z M 244.641 138.396 L 244.645 138.396 L 244.645 138.399 L 244.641 138.399 L 244.641 138.396 Z M 244.665 138.396 L 244.67 138.396 L 244.67 138.399 L 244.665 138.399 L 244.665 138.396 Z M 244.674 138.396 L 244.677 138.396 L 244.677 138.399 L 244.674 138.399 L 244.674 138.396 Z M 244.686 138.396 L 244.69 138.396 L 244.69 138.399 L 244.686 138.399 L 244.686 138.396 Z M 244.699 138.396 L 244.701 138.396 L 244.701 138.399 L 244.699 138.399 L 244.699 138.396 Z M 244.723 138.396 L 244.727 138.396 L 244.727 138.399 L 244.723 138.399 L 244.723 138.396 Z M 244.641 138.399 L 244.645 138.399 L 244.645 138.403 L 244.641 138.403 L 244.641 138.399 Z M 244.648 138.399 L 244.652 138.399 L 244.652 138.403 L 244.648 138.403 L 244.648 138.399 Z M 244.652 138.399 L 244.657 138.399 L 244.657 138.403 L 244.652 138.403 L 244.652 138.399 Z M 244.657 138.399 L 244.661 138.399 L 244.661 138.403 L 244.657 138.403 L 244.657 138.399 Z M 244.665 138.399 L 244.67 138.399 L 244.67 138.403 L 244.665 138.403 L 244.665 138.399 Z M 244.677 138.399 L 244.681 138.399 L 244.681 138.403 L 244.677 138.403 L 244.677 138.399 Z M 244.699 138.399 L 244.701 138.399 L 244.701 138.403 L 244.699 138.403 L 244.699 138.399 Z M 244.706 138.399 L 244.71 138.399 L 244.71 138.403 L 244.706 138.403 L 244.706 138.399 Z M 244.71 138.399 L 244.714 138.399 L 244.714 138.403 L 244.71 138.403 L 244.71 138.399 Z M 244.714 138.399 L 244.719 138.399 L 244.719 138.403 L 244.714 138.403 L 244.714 138.399 Z M 244.723 138.399 L 244.727 138.399 L 244.727 138.403 L 244.723 138.403 L 244.723 138.399 Z M 244.641 138.403 L 244.645 138.403 L 244.645 138.408 L 244.641 138.408 L 244.641 138.403 Z M 244.648 138.403 L 244.652 138.403 L 244.652 138.408 L 244.648 138.408 L 244.648 138.403 Z M 244.652 138.403 L 244.657 138.403 L 244.657 138.408 L 244.652 138.408 L 244.652 138.403 Z M 244.657 138.403 L 244.661 138.403 L 244.661 138.408 L 244.657 138.408 L 244.657 138.403 Z M 244.665 138.403 L 244.67 138.403 L 244.67 138.408 L 244.665 138.408 L 244.665 138.403 Z M 244.674 138.403 L 244.677 138.403 L 244.677 138.408 L 244.674 138.408 L 244.674 138.403 Z M 244.686 138.403 L 244.69 138.403 L 244.69 138.408 L 244.686 138.408 L 244.686 138.403 Z M 244.699 138.403 L 244.701 138.403 L 244.701 138.408 L 244.699 138.408 L 244.699 138.403 Z M 244.706 138.403 L 244.71 138.403 L 244.71 138.408 L 244.706 138.408 L 244.706 138.403 Z M 244.71 138.403 L 244.714 138.403 L 244.714 138.408 L 244.71 138.408 L 244.71 138.403 Z M 244.714 138.403 L 244.719 138.403 L 244.719 138.408 L 244.714 138.408 L 244.714 138.403 Z M 244.723 138.403 L 244.727 138.403 L 244.727 138.408 L 244.723 138.408 L 244.723 138.403 Z M 244.641 138.408 L 244.645 138.408 L 244.645 138.412 L 244.641 138.412 L 244.641 138.408 Z M 244.648 138.408 L 244.652 138.408 L 244.652 138.412 L 244.648 138.412 L 244.648 138.408 Z M 244.652 138.408 L 244.657 138.408 L 244.657 138.412 L 244.652 138.412 L 244.652 138.408 Z M 244.657 138.408 L 244.661 138.408 L 244.661 138.412 L 244.657 138.412 L 244.657 138.408 Z M 244.665 138.408 L 244.67 138.408 L 244.67 138.412 L 244.665 138.412 L 244.665 138.408 Z M 244.681 138.408 L 244.686 138.408 L 244.686 138.412 L 244.681 138.412 L 244.681 138.408 Z M 244.686 138.408 L 244.69 138.408 L 244.69 138.412 L 244.686 138.412 L 244.686 138.408 Z M 244.69 138.408 L 244.694 138.408 L 244.694 138.412 L 244.69 138.412 L 244.69 138.408 Z M 244.699 138.408 L 244.701 138.408 L 244.701 138.412 L 244.699 138.412 L 244.699 138.408 Z M 244.706 138.408 L 244.71 138.408 L 244.71 138.412 L 244.706 138.412 L 244.706 138.408 Z M 244.71 138.408 L 244.714 138.408 L 244.714 138.412 L 244.71 138.412 L 244.71 138.408 Z M 244.714 138.408 L 244.719 138.408 L 244.719 138.412 L 244.714 138.412 L 244.714 138.408 Z M 244.723 138.408 L 244.727 138.408 L 244.727 138.412 L 244.723 138.412 L 244.723 138.408 Z M 244.641 138.412 L 244.645 138.412 L 244.645 138.416 L 244.641 138.416 L 244.641 138.412 Z M 244.665 138.412 L 244.67 138.412 L 244.67 138.416 L 244.665 138.416 L 244.665 138.412 Z M 244.674 138.412 L 244.677 138.412 L 244.677 138.416 L 244.674 138.416 L 244.674 138.412 Z M 244.677 138.412 L 244.681 138.412 L 244.681 138.416 L 244.677 138.416 L 244.677 138.412 Z M 244.681 138.412 L 244.686 138.412 L 244.686 138.416 L 244.681 138.416 L 244.681 138.412 Z M 244.69 138.412 L 244.694 138.412 L 244.694 138.416 L 244.69 138.416 L 244.69 138.412 Z M 244.699 138.412 L 244.701 138.412 L 244.701 138.416 L 244.699 138.416 L 244.699 138.412 Z M 244.723 138.412 L 244.727 138.412 L 244.727 138.416 L 244.723 138.416 L 244.723 138.412 Z M 244.641 138.416 L 244.645 138.416 L 244.645 138.42 L 244.641 138.42 L 244.641 138.416 Z M 244.645 138.416 L 244.648 138.416 L 244.648 138.42 L 244.645 138.42 L 244.645 138.416 Z M 244.648 138.416 L 244.652 138.416 L 244.652 138.42 L 244.648 138.42 L 244.648 138.416 Z M 244.652 138.416 L 244.657 138.416 L 244.657 138.42 L 244.652 138.42 L 244.652 138.416 Z M 244.657 138.416 L 244.661 138.416 L 244.661 138.42 L 244.657 138.42 L 244.657 138.416 Z M 244.661 138.416 L 244.665 138.416 L 244.665 138.42 L 244.661 138.42 L 244.661 138.416 Z M 244.665 138.416 L 244.67 138.416 L 244.67 138.42 L 244.665 138.42 L 244.665 138.416 Z M 244.674 138.416 L 244.677 138.416 L 244.677 138.42 L 244.674 138.42 L 244.674 138.416 Z M 244.681 138.416 L 244.686 138.416 L 244.686 138.42 L 244.681 138.42 L 244.681 138.416 Z M 244.69 138.416 L 244.694 138.416 L 244.694 138.42 L 244.69 138.42 L 244.69 138.416 Z M 244.699 138.416 L 244.701 138.416 L 244.701 138.42 L 244.699 138.42 L 244.699 138.416 Z M 244.701 138.416 L 244.706 138.416 L 244.706 138.42 L 244.701 138.42 L 244.701 138.416 Z M 244.706 138.416 L 244.71 138.416 L 244.71 138.42 L 244.706 138.42 L 244.706 138.416 Z M 244.71 138.416 L 244.714 138.416 L 244.714 138.42 L 244.71 138.42 L 244.71 138.416 Z M 244.714 138.416 L 244.719 138.416 L 244.719 138.42 L 244.714 138.42 L 244.714 138.416 Z M 244.719 138.416 L 244.723 138.416 L 244.723 138.42 L 244.719 138.42 L 244.719 138.416 Z M 244.723 138.416 L 244.727 138.416 L 244.727 138.42 L 244.723 138.42 L 244.723 138.416 Z M 244.681 138.42 L 244.686 138.42 L 244.686 138.425 L 244.681 138.425 L 244.681 138.42 Z M 244.686 138.42 L 244.69 138.42 L 244.69 138.425 L 244.686 138.425 L 244.686 138.42 Z M 244.69 138.42 L 244.694 138.42 L 244.694 138.425 L 244.69 138.425 L 244.69 138.42 Z M 244.641 138.425 L 244.645 138.425 L 244.645 138.429 L 244.641 138.429 L 244.641 138.425 Z M 244.645 138.425 L 244.648 138.425 L 244.648 138.429 L 244.645 138.429 L 244.645 138.425 Z M 244.648 138.425 L 244.652 138.425 L 244.652 138.429 L 244.648 138.429 L 244.648 138.425 Z M 244.652 138.425 L 244.657 138.425 L 244.657 138.429 L 244.652 138.429 L 244.652 138.425 Z M 244.657 138.425 L 244.661 138.425 L 244.661 138.429 L 244.657 138.429 L 244.657 138.425 Z M 244.665 138.425 L 244.67 138.425 L 244.67 138.429 L 244.665 138.429 L 244.665 138.425 Z M 244.67 138.425 L 244.674 138.425 L 244.674 138.429 L 244.67 138.429 L 244.67 138.425 Z M 244.674 138.425 L 244.677 138.425 L 244.677 138.429 L 244.674 138.429 L 244.674 138.425 Z M 244.677 138.425 L 244.681 138.425 L 244.681 138.429 L 244.677 138.429 L 244.677 138.425 Z M 244.69 138.425 L 244.694 138.425 L 244.694 138.429 L 244.69 138.429 L 244.69 138.425 Z M 244.694 138.425 L 244.699 138.425 L 244.699 138.429 L 244.694 138.429 L 244.694 138.425 Z M 244.701 138.425 L 244.706 138.425 L 244.706 138.429 L 244.701 138.429 L 244.701 138.425 Z M 244.71 138.425 L 244.714 138.425 L 244.714 138.429 L 244.71 138.429 L 244.71 138.425 Z M 244.719 138.425 L 244.723 138.425 L 244.723 138.429 L 244.719 138.429 L 244.719 138.425 Z M 244.645 138.429 L 244.648 138.429 L 244.648 138.434 L 244.645 138.434 L 244.645 138.429 Z M 244.648 138.429 L 244.652 138.429 L 244.652 138.434 L 244.648 138.434 L 244.648 138.429 Z M 244.652 138.429 L 244.657 138.429 L 244.657 138.434 L 244.652 138.434 L 244.652 138.429 Z M 244.661 138.429 L 244.665 138.429 L 244.665 138.434 L 244.661 138.434 L 244.661 138.429 Z M 244.69 138.429 L 244.694 138.429 L 244.694 138.434 L 244.69 138.434 L 244.69 138.429 Z M 244.699 138.429 L 244.701 138.429 L 244.701 138.434 L 244.699 138.434 L 244.699 138.429 Z M 244.706 138.429 L 244.71 138.429 L 244.71 138.434 L 244.706 138.434 L 244.706 138.429 Z M 244.714 138.429 L 244.719 138.429 L 244.719 138.434 L 244.714 138.434 L 244.714 138.429 Z M 244.723 138.429 L 244.727 138.429 L 244.727 138.434 L 244.723 138.434 L 244.723 138.429 Z M 244.641 138.434 L 244.645 138.434 L 244.645 138.437 L 244.641 138.437 L 244.641 138.434 Z M 244.657 138.434 L 244.661 138.434 L 244.661 138.437 L 244.657 138.437 L 244.657 138.434 Z M 244.665 138.434 L 244.67 138.434 L 244.67 138.437 L 244.665 138.437 L 244.665 138.434 Z M 244.677 138.434 L 244.681 138.434 L 244.681 138.437 L 244.677 138.437 L 244.677 138.434 Z M 244.686 138.434 L 244.69 138.434 L 244.69 138.437 L 244.686 138.437 L 244.686 138.434 Z M 244.694 138.434 L 244.699 138.434 L 244.699 138.437 L 244.694 138.437 L 244.694 138.434 Z M 244.714 138.434 L 244.719 138.434 L 244.719 138.437 L 244.714 138.437 L 244.714 138.434 Z M 244.648 138.437 L 244.652 138.437 L 244.652 138.442 L 244.648 138.442 L 244.648 138.437 Z M 244.661 138.437 L 244.665 138.437 L 244.665 138.442 L 244.661 138.442 L 244.661 138.437 Z M 244.681 138.437 L 244.686 138.437 L 244.686 138.442 L 244.681 138.442 L 244.681 138.437 Z M 244.694 138.437 L 244.699 138.437 L 244.699 138.442 L 244.694 138.442 L 244.694 138.437 Z M 244.701 138.437 L 244.706 138.437 L 244.706 138.442 L 244.701 138.442 L 244.701 138.437 Z M 244.71 138.437 L 244.714 138.437 L 244.714 138.442 L 244.71 138.442 L 244.71 138.437 Z M 244.714 138.437 L 244.719 138.437 L 244.719 138.442 L 244.714 138.442 L 244.714 138.437 Z M 244.719 138.437 L 244.723 138.437 L 244.723 138.442 L 244.719 138.442 L 244.719 138.437 Z M 244.645 138.442 L 244.648 138.442 L 244.648 138.446 L 244.645 138.446 L 244.645 138.442 Z M 244.648 138.442 L 244.652 138.442 L 244.652 138.446 L 244.648 138.446 L 244.648 138.442 Z M 244.661 138.442 L 244.665 138.442 L 244.665 138.446 L 244.661 138.446 L 244.661 138.442 Z M 244.665 138.442 L 244.67 138.442 L 244.67 138.446 L 244.665 138.446 L 244.665 138.442 Z M 244.67 138.442 L 244.674 138.442 L 244.674 138.446 L 244.67 138.446 L 244.67 138.442 Z M 244.674 138.442 L 244.677 138.442 L 244.677 138.446 L 244.674 138.446 L 244.674 138.442 Z M 244.677 138.442 L 244.681 138.442 L 244.681 138.446 L 244.677 138.446 L 244.677 138.442 Z M 244.681 138.442 L 244.686 138.442 L 244.686 138.446 L 244.681 138.446 L 244.681 138.442 Z M 244.686 138.442 L 244.69 138.442 L 244.69 138.446 L 244.686 138.446 L 244.686 138.442 Z M 244.699 138.442 L 244.701 138.442 L 244.701 138.446 L 244.699 138.446 L 244.699 138.442 Z M 244.701 138.442 L 244.706 138.442 L 244.706 138.446 L 244.701 138.446 L 244.701 138.442 Z M 244.723 138.442 L 244.727 138.442 L 244.727 138.446 L 244.723 138.446 L 244.723 138.442 Z M 244.674 138.446 L 244.677 138.446 L 244.677 138.451 L 244.674 138.451 L 244.674 138.446 Z M 244.686 138.446 L 244.69 138.446 L 244.69 138.451 L 244.686 138.451 L 244.686 138.446 Z M 244.69 138.446 L 244.694 138.446 L 244.694 138.451 L 244.69 138.451 L 244.69 138.446 Z M 244.694 138.446 L 244.699 138.446 L 244.699 138.451 L 244.694 138.451 L 244.694 138.446 Z M 244.699 138.446 L 244.701 138.446 L 244.701 138.451 L 244.699 138.451 L 244.699 138.446 Z M 244.701 138.446 L 244.706 138.446 L 244.706 138.451 L 244.701 138.451 L 244.701 138.446 Z M 244.706 138.446 L 244.71 138.446 L 244.71 138.451 L 244.706 138.451 L 244.706 138.446 Z M 244.71 138.446 L 244.714 138.446 L 244.714 138.451 L 244.71 138.451 L 244.71 138.446 Z M 244.641 138.451 L 244.645 138.451 L 244.645 138.454 L 244.641 138.454 L 244.641 138.451 Z M 244.645 138.451 L 244.648 138.451 L 244.648 138.454 L 244.645 138.454 L 244.645 138.451 Z M 244.648 138.451 L 244.652 138.451 L 244.652 138.454 L 244.648 138.454 L 244.648 138.451 Z M 244.652 138.451 L 244.657 138.451 L 244.657 138.454 L 244.652 138.454 L 244.652 138.451 Z M 244.657 138.451 L 244.661 138.451 L 244.661 138.454 L 244.657 138.454 L 244.657 138.451 Z M 244.661 138.451 L 244.665 138.451 L 244.665 138.454 L 244.661 138.454 L 244.661 138.451 Z M 244.665 138.451 L 244.67 138.451 L 244.67 138.454 L 244.665 138.454 L 244.665 138.451 Z M 244.674 138.451 L 244.677 138.451 L 244.677 138.454 L 244.674 138.454 L 244.674 138.451 Z M 244.677 138.451 L 244.681 138.451 L 244.681 138.454 L 244.677 138.454 L 244.677 138.451 Z M 244.681 138.451 L 244.686 138.451 L 244.686 138.454 L 244.681 138.454 L 244.681 138.451 Z M 244.69 138.451 L 244.694 138.451 L 244.694 138.454 L 244.69 138.454 L 244.69 138.451 Z M 244.694 138.451 L 244.699 138.451 L 244.699 138.454 L 244.694 138.454 L 244.694 138.451 Z M 244.699 138.451 L 244.701 138.451 L 244.701 138.454 L 244.699 138.454 L 244.699 138.451 Z M 244.701 138.451 L 244.706 138.451 L 244.706 138.454 L 244.701 138.454 L 244.701 138.451 Z M 244.714 138.451 L 244.719 138.451 L 244.719 138.454 L 244.714 138.454 L 244.714 138.451 Z M 244.719 138.451 L 244.723 138.451 L 244.723 138.454 L 244.719 138.454 L 244.719 138.451 Z M 244.641 138.454 L 244.645 138.454 L 244.645 138.459 L 244.641 138.459 L 244.641 138.454 Z M 244.665 138.454 L 244.67 138.454 L 244.67 138.459 L 244.665 138.459 L 244.665 138.454 Z M 244.686 138.454 L 244.69 138.454 L 244.69 138.459 L 244.686 138.459 L 244.686 138.454 Z M 244.69 138.454 L 244.694 138.454 L 244.694 138.459 L 244.69 138.459 L 244.69 138.454 Z M 244.694 138.454 L 244.699 138.454 L 244.699 138.459 L 244.694 138.459 L 244.694 138.454 Z M 244.71 138.454 L 244.714 138.454 L 244.714 138.459 L 244.71 138.459 L 244.71 138.454 Z M 244.714 138.454 L 244.719 138.454 L 244.719 138.459 L 244.714 138.459 L 244.714 138.454 Z M 244.723 138.454 L 244.727 138.454 L 244.727 138.459 L 244.723 138.459 L 244.723 138.454 Z M 244.641 138.459 L 244.645 138.459 L 244.645 138.463 L 244.641 138.463 L 244.641 138.459 Z M 244.648 138.459 L 244.652 138.459 L 244.652 138.463 L 244.648 138.463 L 244.648 138.459 Z M 244.652 138.459 L 244.657 138.459 L 244.657 138.463 L 244.652 138.463 L 244.652 138.459 Z M 244.657 138.459 L 244.661 138.459 L 244.661 138.463 L 244.657 138.463 L 244.657 138.459 Z M 244.665 138.459 L 244.67 138.459 L 244.67 138.463 L 244.665 138.463 L 244.665 138.459 Z M 244.674 138.459 L 244.677 138.459 L 244.677 138.463 L 244.674 138.463 L 244.674 138.459 Z M 244.677 138.459 L 244.681 138.459 L 244.681 138.463 L 244.677 138.463 L 244.677 138.459 Z M 244.681 138.459 L 244.686 138.459 L 244.686 138.463 L 244.681 138.463 L 244.681 138.459 Z M 244.69 138.459 L 244.694 138.459 L 244.694 138.463 L 244.69 138.463 L 244.69 138.459 Z M 244.694 138.459 L 244.699 138.459 L 244.699 138.463 L 244.694 138.463 L 244.694 138.459 Z M 244.699 138.459 L 244.701 138.459 L 244.701 138.463 L 244.699 138.463 L 244.699 138.459 Z M 244.723 138.459 L 244.727 138.459 L 244.727 138.463 L 244.723 138.463 L 244.723 138.459 Z M 244.641 138.463 L 244.645 138.463 L 244.645 138.468 L 244.641 138.468 L 244.641 138.463 Z M 244.648 138.463 L 244.652 138.463 L 244.652 138.468 L 244.648 138.468 L 244.648 138.463 Z M 244.652 138.463 L 244.657 138.463 L 244.657 138.468 L 244.652 138.468 L 244.652 138.463 Z M 244.657 138.463 L 244.661 138.463 L 244.661 138.468 L 244.657 138.468 L 244.657 138.463 Z M 244.665 138.463 L 244.67 138.463 L 244.67 138.468 L 244.665 138.468 L 244.665 138.463 Z M 244.674 138.463 L 244.677 138.463 L 244.677 138.468 L 244.674 138.468 L 244.674 138.463 Z M 244.677 138.463 L 244.681 138.463 L 244.681 138.468 L 244.677 138.468 L 244.677 138.463 Z M 244.69 138.463 L 244.694 138.463 L 244.694 138.468 L 244.69 138.468 L 244.69 138.463 Z M 244.694 138.463 L 244.699 138.463 L 244.699 138.468 L 244.694 138.468 L 244.694 138.463 Z M 244.701 138.463 L 244.706 138.463 L 244.706 138.468 L 244.701 138.468 L 244.701 138.463 Z M 244.706 138.463 L 244.71 138.463 L 244.71 138.468 L 244.706 138.468 L 244.706 138.463 Z M 244.71 138.463 L 244.714 138.463 L 244.714 138.468 L 244.71 138.468 L 244.71 138.463 Z M 244.641 138.468 L 244.645 138.468 L 244.645 138.472 L 244.641 138.472 L 244.641 138.468 Z M 244.648 138.468 L 244.652 138.468 L 244.652 138.472 L 244.648 138.472 L 244.648 138.468 Z M 244.652 138.468 L 244.657 138.468 L 244.657 138.472 L 244.652 138.472 L 244.652 138.468 Z M 244.657 138.468 L 244.661 138.468 L 244.661 138.472 L 244.657 138.472 L 244.657 138.468 Z M 244.665 138.468 L 244.67 138.468 L 244.67 138.472 L 244.665 138.472 L 244.665 138.468 Z M 244.674 138.468 L 244.677 138.468 L 244.677 138.472 L 244.674 138.472 L 244.674 138.468 Z M 244.686 138.468 L 244.69 138.468 L 244.69 138.472 L 244.686 138.472 L 244.686 138.468 Z M 244.694 138.468 L 244.699 138.468 L 244.699 138.472 L 244.694 138.472 L 244.694 138.468 Z M 244.71 138.468 L 244.714 138.468 L 244.714 138.472 L 244.71 138.472 L 244.71 138.468 Z M 244.641 138.472 L 244.645 138.472 L 244.645 138.475 L 244.641 138.475 L 244.641 138.472 Z M 244.665 138.472 L 244.67 138.472 L 244.67 138.475 L 244.665 138.475 L 244.665 138.472 Z M 244.674 138.472 L 244.677 138.472 L 244.677 138.475 L 244.674 138.475 L 244.674 138.472 Z M 244.681 138.472 L 244.686 138.472 L 244.686 138.475 L 244.681 138.475 L 244.681 138.472 Z M 244.701 138.472 L 244.706 138.472 L 244.706 138.475 L 244.701 138.475 L 244.701 138.472 Z M 244.706 138.472 L 244.71 138.472 L 244.71 138.475 L 244.706 138.475 L 244.706 138.472 Z M 244.71 138.472 L 244.714 138.472 L 244.714 138.475 L 244.71 138.475 L 244.71 138.472 Z M 244.714 138.472 L 244.719 138.472 L 244.719 138.475 L 244.714 138.475 L 244.714 138.472 Z M 244.641 138.475 L 244.645 138.475 L 244.645 138.48 L 244.641 138.48 L 244.641 138.475 Z M 244.645 138.475 L 244.648 138.475 L 244.648 138.48 L 244.645 138.48 L 244.645 138.475 Z M 244.648 138.475 L 244.652 138.475 L 244.652 138.48 L 244.648 138.48 L 244.648 138.475 Z M 244.652 138.475 L 244.657 138.475 L 244.657 138.48 L 244.652 138.48 L 244.652 138.475 Z M 244.657 138.475 L 244.661 138.475 L 244.661 138.48 L 244.657 138.48 L 244.657 138.475 Z M 244.661 138.475 L 244.665 138.475 L 244.665 138.48 L 244.661 138.48 L 244.661 138.475 Z M 244.665 138.475 L 244.67 138.475 L 244.67 138.48 L 244.665 138.48 L 244.665 138.475 Z M 244.674 138.475 L 244.677 138.475 L 244.677 138.48 L 244.674 138.48 L 244.674 138.475 Z M 244.677 138.475 L 244.681 138.475 L 244.681 138.48 L 244.677 138.48 L 244.677 138.475 Z M 244.681 138.475 L 244.686 138.475 L 244.686 138.48 L 244.681 138.48 L 244.681 138.475 Z M 244.686 138.475 L 244.69 138.475 L 244.69 138.48 L 244.686 138.48 L 244.686 138.475 Z M 244.71 138.475 L 244.714 138.475 L 244.714 138.48 L 244.71 138.48 L 244.71 138.475 Z M 244.719 138.475 L 244.723 138.475 L 244.723 138.48 L 244.719 138.48 L 244.719 138.475 Z" stroke="transparent" fill="black" style="">
        <title>QR</title>
      </path>
    </g>
  </g>
</svg>