<svg width="943" height="392" viewBox="0 0 943 392" fill="none" xmlns="http://www.w3.org/2000/svg">
<path d="M266.7 390.6C258.5 387.6 251.9 380.9 249.9 373.6C248.2 367.3 249.3 357.3 252.4 351.3C256.5 343.1 256.1 341.8 248 336.4C244.2 333.9 239.3 329.8 237.1 327.4C235 325 232.6 323 231.8 323C231.1 323 226.7 326.6 222.1 331C211.9 340.9 203.9 344.9 182.3 351.4C158.3 358.7 152.1 358.8 144.9 351.9C139.9 347.1 137.6 347 132 351.3C118 361.8 111.4 364.8 104 363.5C101.9 363.1 95.7998 360.2 90.3998 356.9C85.0998 353.6 77.1998 349.2 72.9998 347.1C58.2998 339.8 33.1998 322.3 26.3998 314.6C17.1998 304.2 15.6998 299 17.4998 283.2L18.2998 275.9L11.0998 269C-1.1002 257.2 -2.2002 252 3.9998 233.9C7.0998 225 7.1998 224.5 6.0998 216.9C4.1998 204.6 6.0998 200.2 17.9998 188.5C26.9998 179.6 34.7998 169.2 40.4998 158.2C45.8998 147.8 52.4998 142.1 63.0998 138.5C70.8998 135.9 72.6998 135.7 87.4998 135.6C109.6 135.6 136.6 139.1 147.3 143.4C152.9 145.7 157.7 146.2 159.3 144.6C160.1 143.7 160.9 140.2 161.3 135.5C162 126.5 164.2 122.5 170.9 118C178.9 112.6 188.9 114.4 201.7 123.7C205.4 126.4 212.6 131.2 217.5 134.5C228.8 141.9 236.2 149.6 240.6 158.3C245 167 246.6 167.1 251.6 158.9C256.8 150.3 266.4 140.3 272.4 137.3C278.4 134.2 287.4 133.3 294.8 134.9C297.7 135.5 304.4 138 309.8 140.4C317.1 143.7 321.7 145 328.5 145.9C343.3 147.9 350.5 153 353.6 163.7C354.9 168.1 354.9 169.9 353.9 175C353.1 179.3 353 184.4 353.6 191.8C354.8 207.8 354.5 212.3 351.2 226.5C347.5 242.1 346.6 249.7 347.9 253.2C348.7 255.4 349.6 255.8 355.1 256.3C369.2 257.6 374.3 265.7 376 289.8C376.1 290.9 380.5 289.5 382.9 287.5C387.1 283.9 389.6 279.4 394.1 267.7C397.5 258.8 398.7 256.8 404.1 251.4C411 244.4 411 244.5 407 233.4C404.9 227.4 404.9 227 406.4 221.7C408.7 213.9 412 210.5 421.9 205.6C429.4 201.9 430.5 201 430.8 198.6C431.4 193.8 430.2 191.3 424.1 184.8C410.5 170.2 408.3 155 418.3 145.2C424 139.6 430 137.2 441 136.1C446 135.5 450.8 134.6 451.6 133.9C452.5 133.2 453 130.7 453 127.1C453.1 118.5 455.5 106.8 458.5 100.8C459.9 97.9002 463.3 93.0002 465.9 90.0002C473.4 81.2002 476 77.5002 476 75.2002C476 74.0002 473.9 70.8002 471.4 67.9002C466 61.8002 464.8 59.1002 465.9 55.2002C468.2 47.4002 471.9 43.3002 482.5 37.4002C493.3 31.3002 499.1 26.2002 505 17.6002C513.7 4.60018 519.4 1.10018 533 0.300176C545.9 -0.499824 552.1 1.10018 558 6.80018C565.1 13.7002 566.8 22.7002 563.4 35.5002C561.5 43.1002 558.7 47.8002 551.1 56.3002C547.7 60.1002 543.7 65.5002 542.2 68.3002C539.7 73.2002 539.5 74.2002 539.5 87.5002V101.5L544 101.8C548.6 102.1 559.9 98.7002 584.4 89.6002C597.9 84.6002 603.1 84.2002 615.4 87.3002C627.9 90.5002 631.5 93.2002 635.2 102.3C636.7 106 639.9 111.9 642.4 115.4C648.3 123.6 650 127.8 650 134C650 139.9 651.5 143.3 656.2 147.6C661.3 152.4 664.2 154 667.5 154C671.1 154 673.6 152.4 680.6 145.9C689.1 138 696 135.2 712.7 132.9C716.9 132.3 725.8 129.9 732.5 127.5C748.6 121.8 757.5 120.4 767.7 121.9C772 122.5 780.6 123.7 786.9 124.6C794 125.6 802 127.5 808.2 129.7C813.6 131.7 818.4 133 818.7 132.6C819.1 132.2 817.1 130 814.4 127.6C809.3 123.1 807 119 805 111.2C803.8 106.4 800.1 103.5 794 102.4C788.9 101.4 779.9 98.0002 776.7 95.8002C768.4 90.0002 766.1 78.6002 771.5 70.8002C775.5 65.2002 779.3 63.1002 789.2 61.3002C805.7 58.4002 824.3 61.1002 856 71.2002C863.8 73.7002 868 74.3002 880 75.0002C897.6 75.9002 902.3 77.5002 906.7 84.1002C909 87.5002 909.5 89.4002 909.5 94.1002C909.4 104.6 901.6 112.5 888.6 115.4C884.6 116.3 880.3 118 879.2 119.1C878 120.1 876.3 123.6 875.4 126.8C873.2 134.1 870.3 138.8 864.8 143.3C862 145.7 860.8 147.2 861.5 147.9C862.1 148.4 865.9 150.7 870 153C879.1 158.1 884.4 163 887.4 169C890.9 175.8 891.2 178.4 889.4 185.2C887.2 193.8 888 200.5 892.9 214C895.9 222.5 897 227 897 231.4C897 241.5 895.5 244.6 886.3 253.7C878.4 261.4 878 262 878 266.2C878.1 272.9 881.6 278.8 889.1 284.3C898 291 901.4 294.4 907.6 302.6C910.7 306.8 915.5 311.6 919.2 314.3C927.9 320.6 934.2 327.4 937.8 334.5C944.3 347.3 944.1 354.7 937 362.4C933.1 366.5 933.1 366.5 925.8 366.5C919.8 366.4 917.5 365.9 913 363.6C904.8 359.3 885.4 344.6 877.8 336.9C869.9 328.9 869.7 328.8 853.7 332.1C840.8 334.7 830.8 334.8 820 332.5C811.1 330.7 802 330.7 776.5 333C741.6 336.1 730.6 335.5 717.6 329.8C712.2 327.4 709.8 326.9 706.1 327.3C701.7 327.8 672.9 335.3 671 336.5C667.8 338.5 647.6 341.2 632.5 341.7C614.6 342.3 609.5 341.7 590.5 336.8C583.7 335 578.1 334.6 554 334.1C527.1 333.4 525.2 333.3 520.2 331.1C503.1 323.5 503.3 304.7 520.6 294.5C524.5 292.2 525 291.5 525 288.4C525 284.9 515.7 259.7 512.2 253.8C509.1 248.4 495.7 243.3 487.3 244.3C480.5 245.1 465.7 247.2 464.3 247.6C463.5 247.8 463 249.8 463 252.8C463 255.5 462.3 259.9 461.5 262.7C459.6 269.2 453.2 275.1 444.9 278.1C437.3 280.9 434.8 283.6 435.2 288.6C435.5 292.3 435.7 292.5 441.4 294.5C449.5 297.4 455.4 302.7 457.5 309C459 313.6 459 314.4 457.6 318.8C454 329.5 446.5 333.2 425 335C418.7 335.5 411.3 336.4 408.5 336.9C400.5 338.4 381.3 340.9 366.4 342.4C350.6 344 346.6 345.4 337 352.7C321 364.8 317.9 367.3 308.9 375.7C298.6 385.3 293.7 388.2 283.7 390.5C276.1 392.3 271.6 392.3 266.7 390.6ZM287.1 386.4C294.7 384.2 298.2 381.8 308.1 372.5C312.9 368 319.5 362.2 322.9 359.7C348.9 339.8 345 341.3 383.5 336.9C394 335.8 406.1 334.1 410.5 333.4C414.9 332.6 422.3 331.7 427 331.4C439.8 330.7 446.9 328.6 450.7 324.6C459.4 315.3 454.3 301.5 440.8 297.6C437.8 296.7 434.5 295.1 433.6 294.1C430.2 290.4 432 281.6 436.6 278.5C437.9 277.7 441.3 276.1 444.2 275C455.2 270.9 460 263.9 460 251.8C460 245.7 462 244.3 472.6 243C477 242.5 482.8 241.6 485.5 241C489.7 240.1 491.6 240.3 497.3 241.9C506.1 244.5 512.3 248.1 514.8 252.2C515.9 254 519.3 261.9 522.4 269.8C529.6 288.2 529.7 293 523 296.5C510.7 302.9 506.9 315.7 514.8 324.2C519.4 329.2 524.2 330 547.9 330C570.7 330 579 330.9 598.5 335.4C608.1 337.6 611.9 338 628.1 338C647.7 338.1 660 336.7 671.5 333C674.8 331.9 682.2 329.9 687.9 328.5C693.7 327 699.2 325.4 700.2 324.9C703.4 323.2 711.4 323.7 715.6 325.8C725.6 330.9 743 332.8 760.5 330.8C764.4 330.4 771.6 329.8 776.5 329.6C781.5 329.3 790.4 328.6 796.4 328C806.1 326.9 808.4 327 818.4 328.9C824.5 330 830.9 331 832.5 331.2C836.9 331.6 848.2 330.1 858.3 327.9C867 326 867.2 326 871.4 327.9C873.8 328.9 877.2 331.7 879.1 334C883.9 340.1 910.2 359.6 917 362.1C931.1 367.4 941.6 359.6 939 345.7C936.9 335.1 930.3 326.2 917.1 316.3C913.4 313.6 908 308.1 904.6 303.6C901.2 299.2 896 293.7 893 291.3C890 288.9 885.8 285.6 883.7 283.9C879.6 280.5 875.3 273.1 874.9 268.5C874.4 261.8 874.9 260.7 883.4 252.5C891 245.1 891.9 243.9 893 238.7C894.7 231.3 893.5 223.8 888.4 210.5C884.4 200 883.8 193.4 886 186C887.6 180.4 887.2 175.3 884.6 170.2C881.5 164.1 878.2 161.1 869 156C860.3 151.1 858 149.3 858 147.2C858 146.3 860.7 143.1 863.9 140C868.9 135.2 870.1 133.4 871.9 127.7C873 124 874.4 120.1 875 119C876.4 116.3 882.2 113.5 889.2 112.1C903.7 109.1 910.7 96.4002 903.9 85.4002C901.1 80.7002 895.2 78.6002 885.5 78.8002C875 79.0002 863.7 76.9002 846.2 71.4002C823.6 64.4002 805 62.1002 790.1 64.4002C779.3 66.0002 776.5 67.7002 773.2 74.1002C770.4 79.4002 770.8 83.5002 774.5 89.1002C777.5 93.7002 780.2 95.2002 791.5 98.5002C801.3 101.3 805.3 103.7 806.8 107.7C807.3 109.3 808.6 112.8 809.5 115.5C810.7 118.8 812.9 122.1 816 125C821.8 130.6 823.4 133.2 821.8 134.8C820 136.6 817.9 136.3 806.8 132.5C800.4 130.3 792.4 128.4 785.1 127.5C778.7 126.7 770.4 125.5 766.7 124.9C757.9 123.5 750.5 124.7 733.5 130.5C726.3 132.9 716.1 135.6 710.5 136.4C695.3 138.7 688.1 141.9 680.5 150C674.1 156.7 667.4 158.9 661.9 155.9C657.6 153.7 649.1 144.8 648 141.6C647.5 139.9 646.8 135.9 646.6 132.8C646.1 126.4 644.7 123.3 638.6 115C636.3 111.9 633.4 106.5 632.1 103.1C629.3 95.3002 625.9 92.9002 613.5 90.0002C602.4 87.4002 597.3 87.9002 584.7 92.7002C569.7 98.4002 553.2 103.9 548.2 104.8C541.6 106 537.2 104.6 536.3 101.2C535.1 97.0002 535.4 78.0002 536.8 73.5002C538.4 68.0002 543.3 60.5002 550.6 52.2002C557.8 44.1002 560.8 37.1002 561.4 27.2002C562 18.9002 560.6 13.4002 557.2 9.60018C552.9 5.10018 549.3 4.10018 536.8 3.90018C520.2 3.80018 516.9 5.40018 508 18.6002C501.9 27.5002 494.7 34.0002 485.1 39.3002C475.3 44.7002 471.5 48.1002 469.7 53.3002C467.9 58.6002 468.7 60.9002 474.5 67.1002C481.4 74.5002 480.8 77.0002 468.4 91.6002C465.3 95.3002 461.9 100.3 460.8 102.8C458.7 107.5 456 121.9 456 128.6C456 136.4 453.1 138.2 439 139.5C430.4 140.3 424.8 142.6 420.5 147C416.7 150.9 416.5 151.4 416.2 158.6C415.7 168.6 417.5 173.2 425.5 181.9C433 190.1 434.2 192.1 434.2 196.5C434.2 201.9 432.3 203.9 423.4 208.1C413.9 212.7 411.6 215.1 409.4 222.6C407.9 227.7 408 228.1 410.4 234.3C414.3 243.9 414 245.4 407 252.5C401.8 257.8 400.5 259.9 397.1 268.7C392.5 280.9 390.3 284.6 384.9 289.5C381.7 292.3 380.2 293.1 377.7 292.8C373.5 292.4 372.2 289.6 371.1 278.8C370.7 274.2 369.6 269.1 368.7 267.3C366.4 262.9 361.5 260.3 354.3 259.5C345.7 258.5 344.5 257 344.5 247.1C344.6 241.9 345.6 235.2 347.9 226C351 213.3 351.2 211.9 350.5 202.5C349.4 189.8 349.4 183.5 350.5 173.4C351.2 166 351.1 164.8 349 160.5C345.7 153.7 341.6 151.4 328.4 149.1C322.3 148 315.3 146.2 312.9 145C299.3 138 286.9 135.7 277.7 138.4C270.5 140.5 262.8 147.5 255.5 158.6C249.8 167.2 246.6 169.5 243.1 167.3C242.2 166.8 239.7 163.1 237.5 159.1C232.3 149.8 227 144.5 214.6 136.2C209 132.4 201.5 127.3 197.7 124.7C185.7 116.5 176.7 115.8 169.8 122.7C165.6 127 164.1 131.3 164 139.3C164 143 163.5 144.6 161.5 146.5C158.4 149.7 157.3 149.6 145.9 146.1C136.3 143.2 117.5 140 109.9 140C107.5 140 102 139.5 97.4998 138.8C91.3998 137.9 86.6998 137.9 78.3998 138.8C58.9998 140.8 50.5998 145.6 43.4998 159.1C37.3998 170.7 31.2998 178.9 20.4998 190C9.0998 201.8 7.0998 206 8.9998 214.2C10.5998 221.3 10.0998 226.6 7.1998 234.7C1.0998 251.4 1.7998 255.8 12.5998 266.3C21.5998 275 22.4998 277.4 20.3998 287.3C18.3998 296.8 19.9998 302.5 26.9998 310.8C33.9998 319.1 59.7998 337.4 76.4998 345.8C80.8998 348 88.1998 352 92.6998 354.8C102 360.4 106.2 361.6 111.8 360C115.5 359 123.3 354.3 131.4 348C137 343.6 141.1 343.9 146.1 348.9C149 351.9 151 353 154.5 353.5C160.2 354.4 163.2 353.8 181.5 348.4C203 341.9 210.9 337.9 221 328C226.5 322.6 229.9 320 231.5 320C233.1 320 236.1 322.2 240.4 326.5C244.1 330 248.5 333.7 250.3 334.6C258.6 338.8 259.9 343.3 255.5 351.8C252.5 357.6 251.3 366.9 252.9 372.8C254.3 377.7 260.1 384.7 264.5 386.6C268.7 388.4 280.6 388.3 287.1 386.4Z" fill="crimson"/>
<path d="M478.5 203.9C475.7 202.2 475.3 201.4 472.9 193.5C471.7 189.7 468.9 183 466.7 178.7C461.8 169.2 462.1 166.7 469 163.3C475.1 160.1 480 160.4 490 164.5C500.4 168.8 502.3 170.8 501.7 177C500.4 191.2 496.9 199.9 491.7 202.3C487 204.6 480.9 205.3 478.5 203.9ZM489.7 199.9C493.9 198.3 497 190.3 498.7 177C499.3 171.5 499.2 171.4 488.5 167.2C479.5 163.6 475.4 163.3 470.4 165.6C465.5 168 465.4 169.9 469.9 178.2C472.1 182.2 474.6 188.4 475.6 192C478.2 201.8 480.8 203.3 489.7 199.9Z" fill="crimson"/>
<path d="M603.2 276.901C599 273.801 591.8 265.001 587.4 257.501C585 253.301 564.9 203.601 561.1 192.301C558.2 183.601 558.4 180.201 562.5 172.801C564.4 169.401 568.1 162.201 570.6 157.001C576.3 145.301 578.2 142.601 583.3 138.901C588 135.501 592.2 135.201 595.1 138.101C596.9 139.901 597.1 140.901 596.4 146.301C594.2 165.401 596.7 171.401 610.5 180.501C622.1 188.101 622 187.601 622.1 230.901C622.1 265.801 622.1 267.001 619.9 272.001C616.2 280.701 610.6 282.401 603.2 276.901ZM616.4 272.501C618.4 268.601 618.5 267.101 618.5 230.501C618.5 192.601 618.5 192.501 616.2 189.301C615 187.601 612.3 185.101 610.2 183.901C599.6 177.401 593.4 169.501 592.3 161.201C592.1 159.201 592.3 154.001 592.8 149.601C594 140.601 593.6 139.001 590.5 139.001C586 139.001 580.3 144.501 576.4 152.701C574.4 157.001 570.5 164.501 567.7 169.401C560.3 182.301 560.3 182.201 574 217.101C586.9 250.001 590.2 257.301 596.5 265.501C605.7 277.701 612.5 280.101 616.4 272.501Z" fill="crimson"/>
<path d="M689.6 244.8C686.6 240.1 685.7 233.3 686.2 217.7C686.9 197.3 688.4 193.9 698.9 189.9C708.5 186.3 718.1 187.6 721 192.9C721.5 194 722 200.6 722.1 207.6C722.1 217.1 722.6 221.8 724.1 226.4C726.2 233.3 726.5 237.2 725 240.1C724.1 241.8 722.8 242 714.7 242C707.2 242 704.4 242.5 699.5 244.5C692.1 247.6 691.4 247.6 689.6 244.8ZM698.5 241.5C703.4 239.5 706.199 239 713.799 239H723V236.3C723 234.7 722.1 230.6 721 227.2C719.4 222.2 719 218 719 207.4C719 194.2 719 194 716.5 192.4C713.1 190.2 703 191 697.1 193.9C690.4 197.4 689.8 199.8 690.2 222.4C690.4 238.4 690.999 244 692.299 244C692.399 244 695.2 242.9 698.5 241.5Z" fill="crimson"/>
<path d="M795.499 279.2C790.599 278.1 787.899 273.4 787.799 265.9C787.799 259.5 790.099 255.6 796.299 251.7C802.599 247.6 804.399 245.6 806.599 240.5C811.399 229 805.699 218.8 789.099 209.1C785.199 206.8 781.599 204.1 780.999 203C779.599 200.4 779.699 196.1 781.399 190.9C782.199 188.5 783.099 183.1 783.499 179C783.799 174.8 784.499 170.7 784.999 170C786.599 167.4 794.199 168.5 803.199 172.5C826.699 182.9 826.599 182.8 827.999 192.7C828.999 200.3 830.899 204.7 835.899 211C842.199 218.9 841.599 222.2 831.599 234.5C825.999 241.3 823.899 247.9 823.899 258.5C823.899 268.3 822.599 273.6 819.699 275.4C817.799 276.6 810.699 278 799.999 279.4C798.599 279.5 796.599 279.5 795.499 279.2ZM810.599 274.6C814.499 273.9 818.199 273 818.699 272.7C819.299 272.3 819.999 267 820.299 260.8C820.999 246.9 822.899 240.5 828.299 233.7C838.699 220.9 838.899 219.9 832.599 211.4C828.099 205.4 824.999 198 824.999 193.4C824.999 188.9 822.399 184.4 818.899 182.8C804.599 176.2 793.599 172 790.599 172H786.999V178.2C786.999 181.8 786.099 187.2 784.899 191C781.799 200.5 782.399 201.9 791.799 207.3C801.999 213.2 808.399 220.1 810.499 227.4C811.999 232.6 811.999 233.4 810.499 238.5C808.699 244.9 803.799 250.8 797.399 254.6C794.999 256 792.699 258.3 791.999 260C790.499 263.5 791.099 272.2 792.999 274.5C794.599 276.4 801.099 276.5 810.599 274.6Z" fill="crimson"/>
<path d="M91.6999 313.5C86.7999 310.1 81.9999 300.8 81.9999 294.4C81.9999 291.9 82.9999 286.6 84.0999 282.8C86.1999 276 86.1999 275.5 84.5999 270.4C83.1999 265.9 81.6999 264 75.4999 258.4C62.3999 246.6 61.0999 239.8 69.3999 225.2C73.8999 217.3 75.8999 211.6 78.0999 200.5C78.6999 197.2 79.9999 192.9 80.9999 191C86.8999 179.5 103.7 171.3 113.2 175.3C117.1 177 118.9 180.6 120.9 191.4C121.4 194.6 123.4 200.3 125.1 204.1C128.9 212.4 129.2 217.2 126.2 225.3C123.6 232.2 123.3 242.2 125.6 249.5C128 257.5 127.6 261.1 123.3 270.2C119.6 277.8 117 284.6 110.9 301.8C109.7 305.2 107.4 309.9 105.9 312C103.4 315.4 102.5 316 99.1999 316C96.7999 316 94.0999 315.1 91.6999 313.5ZM104.4 308.8C105.7 306.4 108.5 299.6 110.5 293.5C112.5 287.5 116.4 277.8 119.1 271.9C121.8 266.1 124 260 124 258.3C124 256.6 123.1 252.3 122 248.8C119.4 240.4 119.5 235.4 122.5 226.4C125.9 216.4 125.7 212.3 121.6 203.1C119.7 198.9 117.6 192.4 117 188.7C115.5 178.8 114.7 178 107.5 178C99.5999 178 92.6999 181.2 87.2999 187.4C83.7999 191.4 82.7999 193.5 81.4999 199.8C78.5999 213.2 77.0999 217.6 72.4999 225.7C64.4999 240.1 65.2999 244.8 77.9999 256.7C84.6999 263 86.1999 265.1 87.6999 269.7C89.2999 274.9 89.2999 275.5 87.4999 281.8C84.4999 292.8 84.4999 296.8 87.4999 303.3C90.3999 309.4 94.6999 313 99.1999 313C101.3 313 102.4 312.1 104.4 308.8Z" fill="crimson"/>
<path d="M287.6 307.3C286.6 307 282.8 305.2 279.3 303.3C267.1 296.6 265.7 291.3 266.2 252.8C266.5 224.6 265.7 228.5 274.4 214.5C276.7 210.7 277.4 208.1 278.1 200.9C278.6 196 279.4 191.1 280 190C280.6 189 282.8 187.6 284.9 186.9C293.5 184.3 300 190 304.4 203.9C307.9 215 308.1 217.3 308.3 254.5C308.4 279.9 308.2 289.6 307.2 292.8C304.5 301.7 294.7 309 287.6 307.3ZM297 301.7C298.9 300.5 301.3 297.9 302.4 296C304.4 292.6 304.5 291.2 304.3 253C304.2 213.6 304.2 213.5 301.6 205.5C300.2 201.1 297.9 195.8 296.5 193.8C294.1 190.3 293.5 190 289.2 190C286.5 190 283.9 190.5 283.2 191.2C282.5 191.9 282 194.9 282 198C282 205.9 279.7 212.7 274.8 219.6L270.5 225.5V258C270.5 295.7 270.2 294.6 280.6 300.6C287.7 304.6 292.3 304.9 297 301.7Z" fill="crimson"/>
<path fill-rule="evenodd" clip-rule="evenodd" d="M51.4999 318.5C51.9085 318.5 52.3504 318.684 52.7644 318.99L51.4999 318.5ZM54.1885 322.505C53.0176 321.396 52.9234 320.817 54.1999 320.9C54.6614 322.146 54.9099 322.839 54.1885 322.505Z" fill="crimson"/>
<path fill-rule="evenodd" clip-rule="evenodd" d="M83.456 341.68L83.4534 341.679C82.7575 341.249 82.0664 340.822 81.3811 340.399C82.0673 340.823 82.7593 341.25 83.456 341.68Z" fill="crimson"/>
<path fill-rule="evenodd" clip-rule="evenodd" d="M264 377.4C261.1 374.9 260.9 374.5 261.1 367.6C261.2 361.5 261.8 359.4 265.1 352.9C267.3 348.8 269 344.1 269 342.6C269 338.5 265.7 334.6 259 330.5C255.7 328.5 253.2 326.4 253.5 325.9C253.9 325.4 253.5 325.2 252.8 325.5C252.1 325.8 251 325.6 250.4 325.2C248.8 324.2 242.2 314.3 241.4 311.8C240.7 309.4 239.8 308.2 235.8 303.8C232.7 300.6 230.2 300.6 226.4 304.1C225.3 305.2 224 305.7 223.5 305.3C223.1 304.8 223 305 223.3 305.6C223.7 306.3 222.8 308.4 221.5 310.5C220.1 312.5 217.9 316.3 216.5 319C213.5 325 206.8 329.9 197.8 332.9C195.7 333.6 194 334.6 194 335.2C194 335.7 193.4 336 192.8 335.7C192.1 335.5 189.3 335.9 186.6 336.6C183.9 337.3 181.3 337.7 180.8 337.4C180.4 337.1 180 337.3 180 337.8C180 338.3 177 339.5 173.3 340.5C169.5 341.5 163.7 343.3 160.2 344.6C153.6 347.1 150.8 346.9 151.7 344.2C152 343.2 151.6 343.4 150.6 344.8C148.8 347.1 147 347 147 344.6C147 342.6 151.7 338 153.7 338C156.4 338 164.2 335.5 168.7 333.2C170.8 332.1 174.4 330.8 176.5 330.4C185.8 328.8 199.6 319.7 202.6 313.5C203.5 311.6 204.7 310 205.2 310C205.7 310 205.8 309.5 205.5 309C205.2 308.4 205.5 307.7 206.3 307.4C207.2 307.1 208.2 305.7 208.6 304.2C209 302.7 209.4 301.1 209.6 300.5C213.8 285.4 215.6 258.3 213.4 242.5C213.2 240.9 212.6 231.1 212.1 220.9C211.3 203.8 211.1 201.8 208.6 196.4C207.1 193.1 204.7 188.8 203.3 186.7C201.9 184.7 200.6 181.8 200.4 180.3C200.3 178.8 199.4 177 198.4 176.3C197.5 175.6 195.5 173.1 194.1 170.6C192.7 168.1 188.2 162.7 184.3 158.6C180.3 154.5 177 150.6 177 150C177 149.4 176.6 149.1 176.1 149.4C175.1 150.1 172.9 142.3 173.7 140.4C173.9 139.7 174.2 136.1 174.3 132.3C174.5 124.2 175.6 123.6 182.8 127.1C185.4 128.3 188.1 129.3 188.9 129.3C191.1 129.3 202.5 137.6 202.2 139C202.1 139.6 202.4 139.9 202.9 139.5C203.5 139.2 205.8 140.2 208.1 141.7C210.4 143.2 213 145 213.9 145.5C222.6 150.7 225.8 154.2 230.4 163.2C238.7 179.2 240.3 181 246.6 181C249.5 181 255 178.4 255 177C255 176.5 255.6 175.5 256.3 174.8C258.4 172.6 261.7 166.7 262.4 163.7C262.8 162.2 263.5 161.2 264 161.5C264.6 161.8 265 161.4 265 160.5C265 158.5 267.9 154 269.3 154C270.5 154 275.5 148.8 275.2 147.8C275.1 147.3 275.8 147 276.8 147C277.8 147 279.5 146.3 280.6 145.5C282.5 144 288.5 143.4 287.7 144.8C287.4 145.2 288.6 145.5 290.3 145.5C296 145.6 300.9 146.9 306.8 149.9C313.3 153.1 320.6 155.6 326.5 156.6C334.2 157.8 340.8 160.1 341.6 161.8C342.3 163.3 342.7 175.4 343.3 206.5C343.5 213.9 342.8 218.3 339.7 231.4C336.6 244.4 335.8 249.3 335.7 258.5C335.5 271.6 336.1 273 342.4 273C347.2 272.9 350 271.5 353 267.8C356.5 263.3 358.6 264.1 360.5 270.8C361.3 273.9 362.5 277.4 362.9 278.6C363.4 279.7 364.1 283.8 364.5 287.6C365.7 298.4 368.3 302 375 302C379.5 302 385.6 298.5 391.5 292.6C395.4 288.7 398.2 284.3 403.3 273.8C408.6 262.9 410.4 260 412 260C413.1 260 414 259.6 414 259C414 258.5 416 258 418.4 258C422.3 258 423.2 257.6 425.4 254.7C429.3 249.6 428.4 243.4 423.1 238.6C421.9 237.5 421 236.2 421 235.7C421 235.1 419.9 233.2 418.5 231.4C413.8 225.3 415.4 222.5 428 214.8C436.7 209.4 439.3 206.9 441.5 201.7C444.4 194.8 441.8 187.5 433 176.9C425.1 167.5 421.9 157.3 425.3 152.6C426.5 151 428.8 150.6 443.1 150.1C459.1 149.4 462.3 148.7 465 145.5C466.1 144.2 466 144 464.7 144.6C463.4 145.1 463.2 144.6 463.5 141.8C463.8 140 464.2 133 464.4 126.3C464.7 116.2 465.1 113.5 466.8 110.6C467.9 108.7 468.6 106.3 468.4 105.3C468.1 104.1 470.5 100.3 475.8 94C485.2 82.6 490 75.9 493.4 69.3C496.4 63.7 499.5 51.8 498.7 49.6C497.7 47 494 47.8 491.1 51.1C482.3 61.7 479 63.5 474.5 60.6C471.7 58.8 471.2 55.4 473.4 52.5C474.7 50.7 474.8 50.8 475.5 53.8C475.8 55.6 476.7 57 477.4 57C479.2 57 486 51 486 49.5C486 47.5 492.3 43 494.9 43C499.5 43 503.5 40 507.7 33.2C513 24.6 521.6 13.8 524.4 12.3C526.6 11.1 535.3 11.4 542.5 13C545.8 13.8 546.8 13.6 548.6 11.9C549.7 10.9 551.2 10 551.8 10C553.1 10 553.3 15.4 552.1 18.5C551.7 19.6 551.8 21.9 552.4 23.8C553.6 27.8 551.8 39.9 549.7 41.5C547.5 43.2 534 61.2 532 65C529 70.9 527.9 78.1 527.8 91.2C527.7 110.2 530.6 114.6 542.5 113.6C548.885 113.201 550.393 112.702 575.626 104.357L575.8 104.3C584.8 101.4 592.5 99.2 592.9 99.4C593.3 99.7 596.1 99.3 599.1 98.5C607.4 96.3 610 96.5 610 99.4C610 101.1 610.9 102.2 612.9 103.1C614.8 104 615.6 104.9 615.2 105.9L620.7 110.7C621.3 110.3 622.9 111.4 624.2 113C628.8 118.6 634.9 124.8 636.2 125.2C637 125.5 637.5 127.8 637.6 131.1C637.9 137.6 639.5 144.4 641.7 147.9C644.3 152.1 657.1 163.2 661.7 165.2C665.3 166.8 666.6 166.9 670.4 165.9C673 165.3 676.8 163.2 679.2 161.1C690 151.9 694.1 148.8 696.7 148.4C698.2 148.1 700 147.4 700.6 146.9C701.3 146.3 706.3 145.2 711.7 144.4C717.1 143.6 726.8 141.1 733.3 138.9C739.8 136.7 745.8 135.1 746.6 135.4C747.4 135.7 747.9 135.6 747.6 135.1C747.3 134.6 752.3 134.2 759 134.1L771 134L771.6 138C772.1 141.3 772.5 141.8 773.6 140.9C774.4 140.3 775 140.1 775 140.5C775 141 775.9 140.5 777.1 139.4C778.9 137.8 780.7 137.5 787.9 137.6C795.3 137.7 797.6 138.2 804 140.9C808.1 142.7 817.4 146.2 824.5 148.6C831.7 151.1 838.9 153.7 840.7 154.5C842.4 155.3 844.1 156 844.5 156C844.9 156 846.6 156.7 848.3 157.5C854.4 160.2 859.9 161.7 862.4 161.3C864.2 160.9 865.2 161.3 865.7 162.5C866.4 164.5 872.6 170.4 877.6 173.8C881.7 176.5 881.8 177.8 878.4 183.2C874.2 189.8 874.1 196.7 878 206.5C882.8 218.3 884 222.7 884.6 230.9L885.2 238.3L877.2 246.4C867.7 256 866 259.1 866 266.3C866 276.8 873.5 287.4 889.1 299.3C891.1 300.8 893.3 303.4 894 305C894.7 306.6 895.6 307.8 896 307.5C896.5 307.2 897.7 308.5 898.9 310.2C901.4 314.4 907.9 320.6 915.2 325.8C918.3 328.1 921.1 330.9 921.5 332C921.9 333.1 922.6 333.8 923.1 333.5C923.6 333.1 924.1 333.5 924.2 334.2C924.2 334.9 924.4 336 924.4 336.5C924.5 337.1 926.2 340.8 928.3 344.9C935.3 358.8 932.2 360.6 917.5 351.1C915.3 349.7 912.7 348.5 911.8 348.4C910.9 348.3 907.3 346.2 903.8 343.7C894 336.5 893.7 336.2 894.6 334.8C895 334.1 895 333.8 894.6 334.1C893.9 334.8 890.8 332.3 884 325.8C874.8 317.1 871.3 316.2 857.1 319.7C842.1 323.4 829.4 323.4 815.7 320C810.6 318.7 806 318.8 776.5 321.4C746.1 324.1 740.9 324.3 733.1 323C726.2 321.9 725.4 321.5 720.4 316.4C717.4 313.5 715 310.2 715 309.1C715 308 714.6 306.9 714.1 306.6C711.2 304.8 720.6 289 724.6 289C725.4 289 726.3 287.7 726.7 286C727 284 728 282.8 729.4 282.4C734.2 281.2 735.5 274.4 732.6 266.1C730.4 260.2 730.6 258 733.7 248.1C736.3 239.6 736.3 239.5 734.6 233.5C731.8 223.6 731.7 223 731.1 207.8C730.5 193.6 730.4 193 727.5 188.8C723.2 182.7 715.2 178.7 708.5 179.3C702.7 179.9 693.6 183.1 688.9 186.3C687.1 187.5 684.2 190.7 682.5 193.4L679.5 198.3V226.4C679.5 256.5 680.1 260.5 684.4 261.6C687.4 262.3 691.9 260.4 695.6 256.9C697.3 255.3 699.6 253.8 700.8 253.5C701.9 253.3 703.8 252.7 704.9 252.1C707.7 250.5 711.2 250.7 715.6 252.7C717.8 253.6 719.9 254.3 720.3 254.2C720.8 254 720.9 254.4 720.6 254.9C720.3 255.4 720.7 256.3 721.5 257C723.9 259 723.3 263.6 720.5 265.8C719.1 266.9 718.4 268 719 268.2C719.6 268.4 717.8 271.6 715 275.4C709.6 282.7 708.5 285.7 707 296.5C706.2 301.5 705 305.1 702.5 309.2C700.6 312.3 699 315.6 699 316.5C699 317.7 698.2 318.1 696.3 317.9C694.7 317.8 692.2 318.3 690.5 319C683.4 321.9 667.9 325.8 660.5 326.4C656.1 326.7 650.9 327.2 649 327.5C621.7 331.1 611.2 331 595.5 327C584.4 324.1 581.7 323.8 559 323C545.5 322.6 530.8 321.6 526.3 320.9L518 319.6V313.9V308.2L521.8 307.5C524.7 307 527 305.5 531.1 301.4C536.3 296.2 536.5 295.7 536.4 290.7C536.4 283.7 523.4 251 518.4 245.1C514.8 240.9 508.7 237.6 498 234C491.9 232 491 231.9 481.5 233.1C476 233.7 471 234.7 470.3 235.2C469.7 235.7 467.5 235.8 465.6 235.4C457.1 233.9 446.1 238.6 447.5 243.1C447.9 244.2 447.7 245 447.1 245C446.5 245 447.2 247.1 448.5 249.6C451 254.2 451.6 258.3 450.4 261.5C449.4 263.9 444 266.3 439.7 266.2C436.4 266 435.3 266.6 432 270C427.3 274.9 422.9 285.5 422.3 293.6C421.8 299.3 421.9 299.8 424.5 301.8C426 303 428.3 304 429.6 304C430.8 304 432 304.4 432.2 304.9C432.4 305.4 435.4 306.4 439 307C442.6 307.7 446.1 308.4 446.8 308.6C447.6 308.8 448 310.9 448 314.3V319.6L434.3 321.4C426.7 322.4 414 324.4 406 326C392.3 328.7 380.2 330.5 359.5 332.9C352.3 333.7 348.9 334.7 342.5 338C332.9 342.8 303.8 364.7 303.4 367.4C303 370 301.9 370.9 295.3 373.7C286.7 377.4 277.1 379.9 271.8 380C268.2 380 266.4 379.4 264 377.4ZM316.9 294C315.5 299.7 301.8 313.5 294.7 316.5C292.7 317.3 290.3 318 289.3 318C287.5 317.9 282.7 315.7 280.6 313.9C280 313.4 276.6 311.1 273.1 308.8C269.6 306.5 265.7 303.2 264.4 301.5C259.4 294.9 259 292 258.8 258.7C258.5 226.1 258.6 224.5 263 218C263.9 216.6 266.2 212.8 268 209.5L271.2 203.5L270 195.8C268.9 188.9 269 187.7 270.4 185.5C273.1 181.4 276.6 179.8 284 179.2C290.1 178.8 291.6 179.1 296.5 181.5C303.5 184.9 306 188.6 310.7 202.1C314.2 212.4 314.3 212.8 315.1 234.5C315.8 257.1 316.7 266.7 318 268.5C318.5 269.1 318.8 273.1 318.8 277.5C318.9 284.5 318.5 287.4 316.9 294ZM630.5 230.5C630.5 273.4 630.4 274.3 621.5 283.8C615 290.8 610.8 291.6 604 287.2C595.8 282 583.3 266.4 578.1 254.8C576.5 251.4 571.8 239.7 567.7 229C563.5 218.3 558.8 206.3 557.2 202.4C549.8 184.5 549.6 179.5 556.2 168.4C558.4 164.6 562.2 157.3 564.7 152.1C569.5 141.8 576.7 133.3 585 128C594.9 121.6 600.9 123.5 604.8 134C606.1 137.6 605.9 150.8 604.5 154.3C604.1 155.3 604 158.1 604.3 160.6C604.8 165.6 607.8 169.2 616.1 174.8C621.8 178.6 625.7 183.1 628.4 189C630.4 193.3 630.5 195.1 630.5 230.5ZM827.8 282.4C826.5 283.2 818.9 285 810.9 286.4L809.838 286.593C798.583 288.633 796.211 289.063 793.999 288.646C793.408 288.535 792.829 288.364 792.095 288.146C791.938 288.099 791.773 288.051 791.6 288C784.2 285.8 779.6 277 779.6 265.5C779.6 259.7 780 257.6 782.2 254C784.8 249.5 790.5 244.1 797 239.7C802 236.4 802.1 233.2 797.3 226.9C795.2 224.2 791 220.3 788 218.3L778.7 212.1C770.4 206.7 769.1 200.4 773.5 187.6C775.8 180.9 775.9 180 774.6 176.4C773.9 174.3 771.4 169.7 769.1 166.3C763.9 158.4 763.7 154.6 768.3 149.3C770 147.3 770.9 145.9 770.3 146.4C769.6 146.8 769 146.9 769 146.6C769 146.3 769.8 145.6 770.9 145.1C772.4 144.2 773.4 144.7 776.4 147.6C778.5 149.6 779.7 151.6 779.4 152.3C779 153 779 153.2 779.4 152.8C779.8 152.5 782.3 153.4 784.8 154.9C787.4 156.4 791.8 158.5 794.5 159.5C797.3 160.6 802.9 163.1 807 165.1C811.1 167.1 817.4 169.8 821 171.1C831.8 175 839 184.7 836.3 191.8C835.2 194.9 837.6 200.9 840.8 203.2C844.2 205.6 848.8 213 849.5 217.1C850.3 222 847.1 229.4 840.9 236.4C838.7 238.9 837.1 241 837.5 241C837.8 241 837.3 242.2 836.2 243.8C833.3 247.9 832.9 250.1 832.6 263.3C832.3 276.4 831.4 280.1 827.8 282.4ZM489 212C489 212.3 488.4 212.7 487.8 212.8L487.559 212.83C478.964 213.905 476.335 214.233 474.416 213.218C473.57 212.771 472.862 212.063 471.842 211.042L471.7 210.9C469 208.2 467.9 205.8 466.2 198.8C464.2 190.6 460.1 182 458.1 182C457.5 182 456.8 181 456.4 179.8C456 178.5 454.7 176.2 453.4 174.7C450.9 171.8 448.9 165.6 448.6 160.5C448.5 157.2 448.9 157 460 155C463.6 154.4 468.3 153.1 470.5 152.1C473.9 150.6 475.2 150.5 479.7 151.5C482.5 152.2 486 153.4 487.4 154.3C490.4 156.3 491.4 156.5 490.4 154.8C490 154.1 490.8 154.5 492.1 155.7C493.4 156.9 497.1 158.9 500.3 160.1C510.5 164 513.3 170.4 509.4 181.1C508.6 183.5 507.2 189 506.5 193.2C504.5 204.4 501.7 209 496.8 209.2C493.9 209.2 489 211 489 212Z" fill="crimson"/>
<path d="M844.2 135.3C843 135 840.1 133 837.8 130.7C835.5 128.4 834.2 127.4 835 128.5C836.6 130.7 835 129.5 825.4 121C822.6 118.5 819.1 115.7 817.6 114.7C814.7 112.7 814 108.1 816.4 106.1C818.3 104.5 817.6 101.3 814.9 98.3998C812.6 95.9998 805.3 92.7998 799 91.4998C797.1 91.0998 794.8 90.1998 794 89.4998C793.2 88.7998 789.1 86.8998 785 85.2998C778.5 82.7998 777.5 82.0998 777.5 79.9998C777.5 77.8998 778.1 77.3998 781.5 76.6998C783.7 76.2998 788.6 75.1998 792.3 74.2998C797.6 73.0998 802 72.7998 811.3 73.2998C823.3 73.8998 828.2 74.8998 846.5 80.4998C856.5 83.4998 868.6 86.4998 874 87.3998C885 88.9998 890.1 89.1998 892.9 87.9998C898.4 85.7998 902.8 90.6998 899.6 95.4998C897.2 99.0998 893.8 101.1 885.9 103.2C876.6 105.7 871.7 108.3 868.7 112.2C865.7 116.3 864 121.2 864.7 123.8C865.4 126.7 861.4 131.6 856.3 134C852.2 135.9 849.2 136.2 844.2 135.3Z" fill="crimson"/>
<path d="M107 351.9C104.8 352.9 103.3 354 103.7 354.3C104.5 355.2 108 354.2 110 352.5C110.8 351.8 112.1 351.1 112.8 350.9C113.5 350.6 117 348 120.5 345C125.8 340.5 127.7 337.9 131 331.2C133.3 326.7 138.1 318.6 141.9 313.2C145.6 307.9 149.6 302 150.6 300.1C151.6 298.3 153 296 153.5 295.1C155.2 292.1 162.5 281.5 163.1 281C163.4 280.7 165.3 278 167.4 275C174.2 264.7 179.5 258 177.6 262C177.2 262.8 177.8 262.4 179.1 261C180.3 259.6 181.6 258.6 182.1 258.7C182.5 258.9 183.1 258.1 183.4 257.2C183.8 256.2 185.8 254.4 187.9 253.2C190.8 251.5 191.9 250.2 192.3 247.7C192.7 245 192.3 244 189.2 241C184.9 237 181.7 230.3 181.8 226C181.9 222.4 185.1 215 187.3 213.1C190 210.9 189.3 208.1 185.3 204.4C183.2 202.6 181.1 201 180.7 201C180.2 201 180.2 200.5 180.6 199.8C181 199.1 180.9 199 180.2 199.4C179.5 199.8 178 199.4 176.8 198.6C175.6 197.7 175 197 175.6 197C176.1 197 177.2 197.6 178 198.3C178.8 198.9 178.5 198.4 177.4 197C176.2 195.6 174.8 193.6 174.2 192.5C172.8 189.8 172.3 178.9 173.5 177C174 176.2 174.5 174.9 174.6 174.2C174.8 173.4 175.6 172 176.4 171.1C177.3 170.1 178 168.8 178 168.2C178 166.4 172.2 162.9 168.3 162.4C166.4 162.1 164.2 161.6 163.6 161.2C163 160.9 162.1 160.5 161.5 160.5C159.3 160.3 154.4 158.7 153.3 157.7C152.6 157.2 152 157 152 157.4C152 157.7 149.6 157.1 146.8 156.1C132.5 151 107.6 147.8 86.4999 148.4C69.7999 148.8 64.9999 149.7 57.6999 154C52.9999 156.8 50.9999 160.5 50.9999 166.5C50.9999 170.4 50.4999 171.6 47.1999 174.9C45.1999 177 42.5999 179.2 41.3999 179.8C40.2999 180.4 37.8999 183.5 36.1999 186.7C33.2999 192.3 28.7999 196.8 23.0999 200C13.2999 205.5 12.3999 213.1 20.8999 217.5C25.7999 220 28.0999 222 25.9999 222C25.3999 222 25.1999 222.5 25.4999 223.1C25.8999 223.7 24.8999 225.8 23.2999 227.8C14.4999 238.9 11.1999 245 10.7999 251.1C10.4999 255.8 13.3999 258.5 24.6999 264.1C29.1999 266.3 34.2999 269.4 35.9999 271C38.6999 273.5 38.8999 274.1 37.9999 276.6C37.3999 278.1 34.6999 281.5 31.9999 284.1C25.0999 290.8 25.0999 294 32.0999 303.3C34.7999 307 38.0999 310.5 39.2999 311.1C40.4999 311.8 43.7999 314.2 46.4999 316.4C51.1847 320.331 53.3468 322.116 54.1885 322.505C53.0176 321.396 52.9234 320.817 54.1999 320.9C53.9042 320.131 53.3636 319.432 52.7644 318.99L51.4999 318.5C51.9085 318.5 52.3504 318.684 52.7644 318.99C53.3636 319.432 53.9042 320.131 54.1999 320.9C54.6614 322.146 54.9099 322.839 54.1885 322.505C57.3036 325.455 68.0398 332.152 80.8644 340.079L81.3811 340.399L83.4534 341.679L83.456 341.68L83.4577 341.681L83.4608 341.683L83.4668 341.687C90.0121 345.731 96.9876 350.04 103.7 354.3C103.3 354 104.8 352.9 107 351.9C111.8 349.7 112.3 346.5 108.5 343.2C106.5 341.5 106 341.3 106 342.6C106 343.4 105.5 343.8 105 343.5C104.4 343.2 104.2 341.8 104.4 340.4C104.7 339 104.5 338.2 103.9 338.5C103.4 338.9 102.7 338.5 102.4 337.6C102.1 336.8 101.2 336.4 100.5 336.7C99.6999 336.9 98.5999 336.9 97.9999 336.5C96.2999 335.5 98.5999 333.2 102.1 332.5C97.8611 333.31 95.1889 333.153 88.5 329C75.4671 318.164 67.3078 312.582 63.5 296.5C62.4382 295.163 61.9215 294.393 63.5 292.5C65.8639 284.477 69.903 282.213 77.4999 278.5C79.9768 274.767 80.2859 272.889 77.4999 270.2C82.6999 272.8 75.9999 267.8 68.9999 264C64.8999 261.7 60.2999 258.6 58.7999 257.2C54.6999 253.4 52.5999 246.1 53.4999 238.6C54.0999 233.2 54.8999 231.3 61.1999 222.1C67.9999 212.1 68.1999 211.6 67.5999 207.1C66.6999 200.8 66.8999 195.7 67.8999 195C68.2999 194.7 68.9999 192.8 69.3999 190.8C69.7999 188.7 70.3999 187 70.7999 187C71.1999 187 72.1999 185.5 72.8999 183.8C74.3999 180.5 76.3999 178.6 82.9999 174.2C84.8999 172.8 87.8999 170.3 89.4999 168.5C92.2999 165.5 93.2999 165.1 99.9999 164.5C110.2 163.6 119.6 165.3 123.3 168.8C128.4 173.6 129.4 176.7 129.5 186.7C129.5 195.6 129.6 196 132.7 199.2C140.2 207.1 140.9 218 134.5 230.4C130.4 238.4 130 243.1 133.1 246.3C136 249.3 138 254.2 138 258.2C138 262.5 136.2 269 135 269C133.9 269 129 278.2 129 280.2C129 280.9 128.2 283.1 127.2 285C126.2 286.9 124.3 291.9 123.1 296C121.8 300.1 120.3 304.6 119.7 306C119.1 307.4 118.6 309.1 118.4 309.8C118.3 310.5 117.4 312.2 116.5 313.6C115.6 315 115.1 316.4 115.4 316.7C115.7 317 115.1 318.5 114 320C112.9 321.6 112 323.3 112 323.8C112 325.4 107 329 104.7 329C103.1 329 103 329.3 103.9 330.4C104.9 331.6 104.5 331.9 102.1 332.5C98.5999 333.2 96.2999 335.5 97.9999 336.5C98.5999 336.9 99.6999 336.9 100.5 336.7C101.2 336.4 102.1 336.8 102.4 337.6C102.7 338.5 103.4 338.9 103.9 338.5C104.5 338.2 104.7 339 104.4 340.4C104.2 341.8 104.4 343.2 105 343.5C105.5 343.8 106 343.4 106 342.6C106 341.3 106.5 341.5 108.5 343.2C112.3 346.5 111.8 349.7 107 351.9Z" fill="crimson"/>
</svg>
