<?xml version="1.0" standalone="no"?>
<!DOCTYPE svg PUBLIC "-//W3C//DTD SVG 20010904//EN"
 "http://www.w3.org/TR/2001/REC-SVG-20010904/DTD/svg10.dtd">
<svg version="1.0" xmlns="http://www.w3.org/2000/svg"
 width="554.000000pt" height="554.000000pt" viewBox="0 0 554.000000 554.000000"
 preserveAspectRatio="xMidYMid meet">
<metadata>
Created by potrace 1.14, written by Peter Selinger 2001-2017
</metadata>
<g transform="translate(0.000000,554.000000) scale(0.100000,-0.100000)"
fill="#000000" stroke="none">
<path d="M2677 5534 c-1 -1 -50 -4 -109 -8 -59 -3 -113 -8 -120 -11 -7 -2 -35
-6 -63 -9 -27 -3 -75 -10 -105 -16 -30 -6 -68 -13 -85 -16 -16 -2 -38 -7 -47
-10 -9 -3 -26 -7 -38 -9 -45 -9 -197 -56 -310 -97 -97 -35 -393 -175 -398
-189 -2 -5 -8 -9 -13 -9 -31 0 -353 -229 -450 -320 -246 -231 -384 -397 -531
-636 -162 -262 -306 -636 -353 -917 -3 -17 -8 -39 -10 -47 -2 -8 -7 -39 -10
-69 -4 -30 -9 -63 -11 -75 -22 -114 -22 -520 1 -657 2 -13 6 -46 10 -73 5 -40
35 -195 49 -256 25 -103 73 -262 96 -315 5 -11 32 -75 60 -142 29 -68 75 -162
103 -210 27 -49 59 -103 69 -122 105 -185 351 -476 542 -640 359 -308 737
-500 1211 -616 35 -9 30 -8 200 -36 181 -30 589 -33 785 -5 14 2 48 7 75 11
91 13 328 73 440 111 617 208 1150 641 1487 1204 143 239 278 576 322 800 3
14 11 59 19 100 34 173 42 270 42 515 0 240 -12 396 -41 510 -1 6 -5 26 -9 45
-24 135 -76 310 -137 463 -140 354 -344 663 -618 938 -253 255 -525 441 -851
582 -232 101 -487 174 -709 203 -25 3 -56 7 -69 9 -63 11 -415 26 -424 19z
m317 -508 c62 -7 124 -15 156 -21 14 -3 41 -7 60 -10 19 -3 62 -13 95 -21 33
-9 68 -18 78 -19 9 -2 20 -6 25 -9 5 -3 9 -1013 3 -1036 -1 -6 -2589 -6 -2595
0 -6 7 128 204 198 290 346 425 863 724 1391 806 17 2 40 7 52 9 12 3 61 8
110 11 48 4 89 8 90 9 5 4 290 -4 337 -9z m1063 -388 c127 -85 291 -229 414
-364 95 -105 265 -346 255 -362 -3 -5 -717 -8 -797 -3 -14 1 -16 42 -16 411
l1 409 35 -21 c20 -12 69 -44 108 -70z m-2023 -2259 l-1029 -1030 -28 33 c-65
76 -174 253 -242 393 -113 231 -169 413 -209 675 -26 166 -26 443 0 635 6 48
21 128 38 203 8 36 28 107 32 113 2 4 558 7 1236 7 l1231 0 -1029 -1029z
m2925 998 c6 -18 19 -70 30 -117 116 -514 44 -1069 -200 -1537 -42 -81 -143
-249 -159 -263 -3 -3 -18 -23 -33 -46 -15 -22 -35 -49 -45 -60 -9 -10 -30 -35
-45 -54 -40 -49 -169 -180 -225 -229 -26 -22 -63 -54 -82 -71 -19 -16 -60 -47
-90 -68 -30 -20 -63 -45 -74 -55 -11 -9 -23 -17 -27 -17 -5 0 -25 -11 -45 -25
-20 -14 -40 -25 -44 -25 -5 0 -7 2593 -2 2596 1 1 234 1 516 2 l515 1 10 -32z
m-1544 -1563 l0 -1225 -50 -14 c-311 -90 -709 -103 -1035 -34 -52 11 -106 22
-120 25 -82 17 -315 105 -435 164 -133 65 -309 174 -384 238 l-34 29 1024
1025 c563 563 1026 1023 1029 1021 3 -3 5 -556 5 -1229z"/>
</g>
</svg>
